M48
;Layer_Color=9474304
;FILE_FORMAT=2:5
INCH,LZ
;TYPE=PLATED
T1F00S00C0.01181
T2F00S00C0.03000
T4F00S00C0.03543
T5F00S00C0.11811
%
T01
X0121Y0103
X0145
X0141Y0145
X0104Y0149
Y0121
X017
X018
X0186Y011
X01975Y01119
X01955Y01255
X02075Y01235
X02233Y01232
X02289Y01358
X02335Y01335
X0254Y0135
X0258Y01487
X02625Y0151
X02595Y01555
X0278Y0155031
X02792Y01511
X0274214Y0148341
X0286Y01295
X0295
X0311511Y0131704
X0309Y0135
X03021Y01151
X0299Y0155
X02444Y01496
X0208Y015
X0211Y01545
X01975Y01487
X0181Y0143
X017Y0141
X0171Y0106
X02384Y01123
X0255Y011
X032
X03207Y01172
X03292Y01149
X0338Y0112
X0336134Y0131566
X03459Y01346
X0351805Y0133636
X03566Y01244
X0361931Y01239
X0368Y01227
X03589Y01126
X0387Y0111
X0395969Y0109431
X0401Y0113
X04058Y01254
X04123Y01234
X04145Y0132
X0419Y0133
X04225Y0126
X04295Y01305
X04335Y013
X04385Y01265
X0442Y0134
X04555Y01355
X0463Y0111
X04319Y011
X04335Y0151409
X04305Y01545
X0424Y01495
X039Y0152
X0393Y01335
X03805Y01355
X0357Y0145
X0354Y0147
X0317Y0155
X0318Y0133
X0477Y0134
X048Y013
X0487Y0128
X0491814Y01241
X0498Y01275
Y0132
X0507Y01315
X0504Y0127
X05125Y01265
X05165Y0133
X05275Y01325
X0533Y0133
X0532Y0148
X05365Y01485
X0543Y015
X0532Y0155
X0524Y0151
X05135Y01485
X05045Y01495
X0504385Y0155385
X0501Y0153
X0500062Y0147834
X0493Y0155
X0481
X0474Y0149
X0478Y0108
X05385Y0117
X0546Y0113
X0553Y0114
X0545Y01225
Y01285
X05588Y01291
X05635Y01305
X05667Y0124
X057325Y012525
X0578531Y0127762
X05828Y0133
X05895Y013
X05875Y01255
X06065Y0125
X06045Y01345
X0612Y0132
X06175Y0135
X0623Y0133
X0622Y0121
X0612Y0107
X0579Y01115
X05671Y0111
X05635Y01475
X05695Y015
X05755Y01485
X05805Y01505
X05955
X0605Y0153
X0648Y0142
X0657Y0143
Y0156
X0671Y0155
Y0144
X0659Y0131
Y0117
X0666Y012
X0671Y0105
X0678Y0104
X0659Y0106
X0645
X0634Y0105
X06262Y01082
X0696Y0122
X06865Y01619
X0686Y0179
X0676Y0187
Y0205
X0674Y0215
X067Y02177
X0661Y0215
X0657Y0211
X0656Y0199
X0663Y0194
X06522Y0182
X06511Y0175
X06637Y01694
X0685Y0198
X06914Y0232791
X0671Y02475
X066159Y0249991
X0647Y0243
X0644Y0238
X0639Y0239
Y0245
X06339Y02423
X0633Y0237
X06355Y02325
X06405Y02345
X0641Y0225
X0632Y0208031
X062625Y02135
X0631Y0195
X06282Y01921
X0631Y0257
X0628831Y0259569
X0638Y0259
X0641Y027
Y0274
X0644Y0277
X0651Y027
X06542Y02663
X0651Y0263
X0657Y0286
Y0291
Y0297
Y0302
Y0308
X0637Y0301
X064Y0297
X0635Y0289
X063Y0286
X0627Y0283
X0631Y0293
X0627Y0297
X0633Y0305
X067Y0275
X06978Y02912
X0613Y0292
Y0299
X06175Y0305
X0613Y0281
X0623Y028
X0603Y0288
Y0272
Y0262
Y0254
Y0246
Y0237
Y0229
Y0221
Y0209
Y0202
Y0196
X0605Y0184
Y0178
Y0172
Y0165
Y0159
X06Y0179
X0622Y02
X0613Y0209
X06172Y02172
X06199Y02193
X0624Y0219
X06197Y02245
X0618Y0232
X0619Y0236
X0617Y02495
X06215Y02515
X06117Y02624
X05931Y02676
X0568Y0265
X05659Y02741
X05153Y02755
X05189Y02658
X05205Y02565
X05311Y02278
X0514Y0223
Y0213
X0504
X05
Y0223
X0504
X04755Y02135
X04693Y0271
X04835Y0278
X04965Y0275
X0513Y0298
X0511Y0301
X0508Y0304
X0505Y0308
X0502Y0312
X0522
X0526Y0309
X0547Y0208
X05465Y01691
X0567369Y0158231
X0511Y016
X05027Y01598
X0504Y0164
X0496Y01575
X0418Y01595
X0376Y016
X0384Y0174
X0356Y0157
X0335Y0172
X0317Y02089
X0315Y023
X034Y0235
X0376Y0229
X0374Y0209
X03945Y02211
X0422Y02226
X04365Y02286
X04606Y02222
X04461Y02674
X04325Y0275256
X0405669Y02554
X0392Y0269
X0376Y0292
Y0296
Y03
Y0304
Y0308
Y0312
X0368
Y0308
Y0304
Y03
Y0296
Y0292
Y02841
X03589Y02809
X03542Y02765
X0346338Y02789
X0331Y0294
X0316Y029
X0319Y0306
X0312Y0293
X0308
X0304
X03Y0289
X0293
X0285
X02806Y02757
X02655Y0278
X0262Y0288
X0258
X0254
X02465Y02675
X02235Y02717
X02079Y02687
X01868Y02682
X0192Y02754
X0174Y0266
X016Y0294
X0216Y0293
Y029
Y0287
X0231Y02125
X0181Y0219
X0178
X0175
X0172
X0164
X0161
X0158
X0181Y0182
Y0166
X0168439Y0167894
X02Y0162931
X01995Y01585
X02754Y0159117
X0294Y01585
X02995Y02775
X01505Y0232
X0155Y0219
X0103Y0215
X0104Y0244
X0111Y0252
X0104Y0272
Y029
Y0308
Y0183
Y0164
X0152Y0163
X0151Y0158
X0122Y0326
X0161Y0327
X0318Y0325
X0336Y0326
X0352Y0319
X0368Y0318
Y0315
Y0321
X0376
Y0318
Y0315
X03725Y0326
X0513Y0322
X0516Y0319
X0519Y0316
X0518Y0325
X0538
X0592
X0613
T02
X0473906Y0197331
X0482764Y0203236
X0488669Y0212094
Y0222921
X0483748Y0232764
X0473906Y0238669
X0531252Y0232764
X0526331Y0222921
Y0212094
X0531252Y0203236
X0541094Y0197331
X0552906
X0561764Y0203236
X0567669Y0212094
Y0222921
X0562748Y0232764
X0552906Y0238669
X0541094
X0462094
X0452252Y0232764
X0447331Y0222921
Y0212094
X0452252Y0203236
X0462094Y0197331
X0331264Y0204236
X0322406Y0198331
X0337169Y0213094
Y0223921
X0332248Y0233764
X0322406Y0239669
X0310594
X0300752Y0233764
X0295831Y0223921
Y0213094
X0300752Y0204236
X0310594Y0198331
X0252764Y0204236
X0243906Y0198331
X0232094
X0222252Y0204236
X0217331Y0213094
Y0223921
X0222252Y0233764
X0232094Y0239669
X0243906
X0253748Y0233764
X0258669Y0223921
Y0213094
T04
X0621Y0114
X0631
X0641
X0651
X0695Y0139945
Y0149
Y0174945
Y0184
Y0210472
Y0219528
Y0245
Y0254055
X0695016Y0279547
Y0288602
X0396Y024
X0386
X03865Y0203
X03965
X0633Y032
X0643
X0653
X0663
T05
X012Y0119
X068
X0681Y031
X012Y0311
M30
