G04*
G04 #@! TF.GenerationSoftware,Altium Limited,Altium Designer,20.0.9 (164)*
G04*
G04 Layer_Color=16711935*
%FSLAX25Y25*%
%MOIN*%
G70*
G01*
G75*
%ADD18R,0.06300X0.05300*%
%ADD20R,0.16548X0.08674*%
%ADD21R,0.08674X0.16548*%
%ADD22C,0.06706*%
%ADD23R,0.06706X0.06706*%
%ADD24C,0.00800*%
%ADD25C,0.18517*%
%ADD26C,0.07493*%
%ADD27R,0.07493X0.07493*%
%ADD28C,0.06800*%
%ADD81R,0.20485X0.12611*%
%ADD82R,0.06300X0.07000*%
G04:AMPARAMS|DCode=83|XSize=43mil|YSize=38mil|CornerRadius=0mil|HoleSize=0mil|Usage=FLASHONLY|Rotation=45.000|XOffset=0mil|YOffset=0mil|HoleType=Round|Shape=Rectangle|*
%AMROTATEDRECTD83*
4,1,4,-0.00177,-0.02864,-0.02864,-0.00177,0.00177,0.02864,0.02864,0.00177,-0.00177,-0.02864,0.0*
%
%ADD83ROTATEDRECTD83*%

%ADD84R,0.03950X0.04800*%
%ADD85R,0.03800X0.04300*%
G04:AMPARAMS|DCode=86|XSize=19.81mil|YSize=90.68mil|CornerRadius=0mil|HoleSize=0mil|Usage=FLASHONLY|Rotation=135.000|XOffset=0mil|YOffset=0mil|HoleType=Round|Shape=Round|*
%AMOVALD86*
21,1,0.07087,0.01981,0.00000,0.00000,225.0*
1,1,0.01981,0.02506,0.02506*
1,1,0.01981,-0.02506,-0.02506*
%
%ADD86OVALD86*%

G04:AMPARAMS|DCode=87|XSize=19.81mil|YSize=90.68mil|CornerRadius=0mil|HoleSize=0mil|Usage=FLASHONLY|Rotation=225.000|XOffset=0mil|YOffset=0mil|HoleType=Round|Shape=Round|*
%AMOVALD87*
21,1,0.07087,0.01981,0.00000,0.00000,315.0*
1,1,0.01981,-0.02506,0.02506*
1,1,0.01981,0.02506,-0.02506*
%
%ADD87OVALD87*%

G04:AMPARAMS|DCode=88|XSize=55.24mil|YSize=63.12mil|CornerRadius=0mil|HoleSize=0mil|Usage=FLASHONLY|Rotation=135.000|XOffset=0mil|YOffset=0mil|HoleType=Round|Shape=Rectangle|*
%AMROTATEDRECTD88*
4,1,4,0.04185,0.00278,-0.00278,-0.04185,-0.04185,-0.00278,0.00278,0.04185,0.04185,0.00278,0.0*
%
%ADD88ROTATEDRECTD88*%

%ADD89R,0.06706X0.03950*%
%ADD90R,0.06706X0.05131*%
G04:AMPARAMS|DCode=91|XSize=43mil|YSize=38mil|CornerRadius=0mil|HoleSize=0mil|Usage=FLASHONLY|Rotation=315.000|XOffset=0mil|YOffset=0mil|HoleType=Round|Shape=Rectangle|*
%AMROTATEDRECTD91*
4,1,4,-0.02864,0.00177,-0.00177,0.02864,0.02864,-0.00177,0.00177,-0.02864,-0.02864,0.00177,0.0*
%
%ADD91ROTATEDRECTD91*%

G04:AMPARAMS|DCode=92|XSize=48mil|YSize=39.5mil|CornerRadius=0mil|HoleSize=0mil|Usage=FLASHONLY|Rotation=135.000|XOffset=0mil|YOffset=0mil|HoleType=Round|Shape=Rectangle|*
%AMROTATEDRECTD92*
4,1,4,0.03094,-0.00301,0.00301,-0.03094,-0.03094,0.00301,-0.00301,0.03094,0.03094,-0.00301,0.0*
%
%ADD92ROTATEDRECTD92*%

%ADD93R,0.04800X0.03950*%
%ADD94R,0.04300X0.08800*%
%ADD95R,0.08800X0.02769*%
%ADD96O,0.08800X0.02769*%
%ADD97R,0.05800X0.05800*%
%ADD98R,0.14383X0.06902*%
%ADD99R,0.05131X0.06902*%
%ADD100R,0.05131X0.06902*%
%ADD101O,0.03800X0.08800*%
G04:AMPARAMS|DCode=102|XSize=88mil|YSize=38mil|CornerRadius=0mil|HoleSize=0mil|Usage=FLASHONLY|Rotation=90.000|XOffset=0mil|YOffset=0mil|HoleType=Round|Shape=Octagon|*
%AMOCTAGOND102*
4,1,8,0.00950,0.04400,-0.00950,0.04400,-0.01900,0.03450,-0.01900,-0.03450,-0.00950,-0.04400,0.00950,-0.04400,0.01900,-0.03450,0.01900,0.03450,0.00950,0.04400,0.0*
%
%ADD102OCTAGOND102*%

%ADD103R,0.10249X0.16548*%
G04:AMPARAMS|DCode=104|XSize=45mil|YSize=40mil|CornerRadius=12mil|HoleSize=0mil|Usage=FLASHONLY|Rotation=90.000|XOffset=0mil|YOffset=0mil|HoleType=Round|Shape=RoundedRectangle|*
%AMROUNDEDRECTD104*
21,1,0.04500,0.01600,0,0,90.0*
21,1,0.02100,0.04000,0,0,90.0*
1,1,0.02400,0.00800,0.01050*
1,1,0.02400,0.00800,-0.01050*
1,1,0.02400,-0.00800,-0.01050*
1,1,0.02400,-0.00800,0.01050*
%
%ADD104ROUNDEDRECTD104*%
%ADD105R,0.10800X0.05800*%
%ADD106R,0.05800X0.06800*%
G04:AMPARAMS|DCode=107|XSize=45mil|YSize=40mil|CornerRadius=12mil|HoleSize=0mil|Usage=FLASHONLY|Rotation=0.000|XOffset=0mil|YOffset=0mil|HoleType=Round|Shape=RoundedRectangle|*
%AMROUNDEDRECTD107*
21,1,0.04500,0.01600,0,0,0.0*
21,1,0.02100,0.04000,0,0,0.0*
1,1,0.02400,0.01050,-0.00800*
1,1,0.02400,-0.01050,-0.00800*
1,1,0.02400,-0.01050,0.00800*
1,1,0.02400,0.01050,0.00800*
%
%ADD107ROUNDEDRECTD107*%
%ADD108R,0.04500X0.04000*%
%ADD109R,0.10249X0.08674*%
G04:AMPARAMS|DCode=110|XSize=118.24mil|YSize=67.06mil|CornerRadius=0mil|HoleSize=0mil|Usage=FLASHONLY|Rotation=90.000|XOffset=0mil|YOffset=0mil|HoleType=Round|Shape=Octagon|*
%AMOCTAGOND110*
4,1,8,0.01676,0.05912,-0.01676,0.05912,-0.03353,0.04235,-0.03353,-0.04235,-0.01676,-0.05912,0.01676,-0.05912,0.03353,-0.04235,0.03353,0.04235,0.01676,0.05912,0.0*
%
%ADD110OCTAGOND110*%

%ADD111R,0.26391X0.08674*%
%ADD112O,0.04737X0.11430*%
%ADD113R,0.04737X0.11430*%
%ADD114O,0.03200X0.08800*%
%ADD115R,0.05800X0.05800*%
%ADD116O,0.03162X0.09068*%
%ADD117R,0.04400X0.05800*%
%ADD118R,0.04400X0.04400*%
%ADD119R,0.03800X0.04400*%
D18*
X640000Y185000D02*
D03*
X631000D02*
D03*
D20*
X143780Y292504D02*
D03*
D21*
X130000Y274000D02*
D03*
X154409D02*
D03*
D22*
X633000Y320000D02*
D03*
X643000D02*
D03*
X653000D02*
D03*
X621000Y114000D02*
D03*
X631000D02*
D03*
X641000D02*
D03*
D23*
X663000Y320000D02*
D03*
X651000Y114000D02*
D03*
D24*
X695016Y288602D02*
D03*
Y279547D02*
D03*
X695000Y254055D02*
D03*
Y245000D02*
D03*
Y219528D02*
D03*
Y210472D02*
D03*
Y184000D02*
D03*
Y174945D02*
D03*
Y149000D02*
D03*
Y139945D02*
D03*
D25*
X681000Y310000D02*
D03*
X680000Y119000D02*
D03*
X120000D02*
D03*
Y311000D02*
D03*
D26*
X396500Y203000D02*
D03*
X396000Y240000D02*
D03*
D27*
X386500Y203000D02*
D03*
X386000Y240000D02*
D03*
D28*
X552906Y197331D02*
D03*
X561764Y203236D02*
D03*
X567669Y212094D02*
D03*
Y222921D02*
D03*
X562748Y232764D02*
D03*
X552906Y238669D02*
D03*
X541094D02*
D03*
X531252Y232764D02*
D03*
X526331Y222921D02*
D03*
Y212094D02*
D03*
X531252Y203236D02*
D03*
X541094Y197331D02*
D03*
X473906D02*
D03*
X482764Y203236D02*
D03*
X488669Y212094D02*
D03*
Y222921D02*
D03*
X483748Y232764D02*
D03*
X473906Y238669D02*
D03*
X462094D02*
D03*
X452252Y232764D02*
D03*
X447331Y222921D02*
D03*
Y212094D02*
D03*
X452252Y203236D02*
D03*
X462094Y197331D02*
D03*
X322406Y198331D02*
D03*
X331264Y204236D02*
D03*
X337169Y213094D02*
D03*
Y223921D02*
D03*
X332248Y233764D02*
D03*
X322406Y239669D02*
D03*
X310594D02*
D03*
X300752Y233764D02*
D03*
X295831Y223921D02*
D03*
Y213094D02*
D03*
X300752Y204236D02*
D03*
X310594Y198331D02*
D03*
X243906D02*
D03*
X252764Y204236D02*
D03*
X258669Y213094D02*
D03*
Y223921D02*
D03*
X253748Y233764D02*
D03*
X243906Y239669D02*
D03*
X232094D02*
D03*
X222252Y233764D02*
D03*
X217331Y223921D02*
D03*
Y213094D02*
D03*
X222252Y204236D02*
D03*
X232094Y198331D02*
D03*
D81*
X125439Y189378D02*
D03*
Y236622D02*
D03*
D82*
X157951Y132000D02*
D03*
X146731D02*
D03*
D83*
X680404Y254404D02*
D03*
X675525Y249525D02*
D03*
X670596Y254596D02*
D03*
X675475Y259475D02*
D03*
X609596Y217596D02*
D03*
X614475Y222475D02*
D03*
X661404Y274404D02*
D03*
X656525Y269525D02*
D03*
D84*
X673000Y232350D02*
D03*
Y239650D02*
D03*
X625000Y263650D02*
D03*
Y256350D02*
D03*
X672000Y175000D02*
D03*
Y182300D02*
D03*
X642000Y195350D02*
D03*
Y202650D02*
D03*
X468000Y220000D02*
D03*
Y212700D02*
D03*
X237000Y214700D02*
D03*
Y222000D02*
D03*
X317000Y215700D02*
D03*
Y223000D02*
D03*
X547000Y214350D02*
D03*
Y221650D02*
D03*
X593000Y174000D02*
D03*
Y181300D02*
D03*
X498000Y172350D02*
D03*
Y179650D02*
D03*
X356000Y173700D02*
D03*
Y181000D02*
D03*
X265000Y172350D02*
D03*
Y179650D02*
D03*
D85*
X679000Y240400D02*
D03*
Y233500D02*
D03*
X636000Y266600D02*
D03*
Y273500D02*
D03*
X679000Y182400D02*
D03*
Y175500D02*
D03*
D86*
X646112Y254423D02*
D03*
X647504Y253031D02*
D03*
X648896Y251639D02*
D03*
X650288Y250247D02*
D03*
X651680Y248855D02*
D03*
X653072Y247463D02*
D03*
X654463Y246072D02*
D03*
X655855Y244680D02*
D03*
X657247Y243288D02*
D03*
X658639Y241896D02*
D03*
X660031Y240504D02*
D03*
X661423Y239112D02*
D03*
X637959Y215648D02*
D03*
X636567Y217039D02*
D03*
X635175Y218431D02*
D03*
X633783Y219823D02*
D03*
X632391Y221215D02*
D03*
X630999Y222607D02*
D03*
X629607Y223999D02*
D03*
X628215Y225391D02*
D03*
X626823Y226783D02*
D03*
X625431Y228175D02*
D03*
X624039Y229567D02*
D03*
X622648Y230959D02*
D03*
D87*
X661423Y230888D02*
D03*
X660031Y229496D02*
D03*
X658639Y228104D02*
D03*
X657247Y226712D02*
D03*
X655855Y225320D02*
D03*
X654463Y223928D02*
D03*
X653072Y222537D02*
D03*
X651680Y221145D02*
D03*
X650288Y219753D02*
D03*
X648896Y218361D02*
D03*
X647504Y216969D02*
D03*
X646112Y215577D02*
D03*
X622577Y239112D02*
D03*
X623969Y240504D02*
D03*
X625361Y241896D02*
D03*
X626753Y243288D02*
D03*
X628145Y244680D02*
D03*
X629537Y246072D02*
D03*
X630928Y247463D02*
D03*
X632320Y248855D02*
D03*
X633712Y250247D02*
D03*
X635104Y251639D02*
D03*
X636496Y253031D02*
D03*
X637888Y254423D02*
D03*
D88*
X661000Y264000D02*
D03*
X665525Y259475D02*
D03*
X671324Y265414D02*
D03*
X666869Y269869D02*
D03*
D89*
X688126Y275807D02*
D03*
Y292343D02*
D03*
X688110Y241260D02*
D03*
Y257795D02*
D03*
Y206732D02*
D03*
Y223268D02*
D03*
Y171205D02*
D03*
Y187740D02*
D03*
Y136205D02*
D03*
Y152740D02*
D03*
D90*
X696000Y270000D02*
D03*
Y298150D02*
D03*
X695984Y235453D02*
D03*
Y263602D02*
D03*
Y200925D02*
D03*
Y229075D02*
D03*
Y165398D02*
D03*
Y193547D02*
D03*
Y130398D02*
D03*
Y158547D02*
D03*
D91*
X663404Y199596D02*
D03*
X658525Y204475D02*
D03*
D92*
X663419Y209581D02*
D03*
X668581Y204419D02*
D03*
D93*
X663650Y175000D02*
D03*
X656350D02*
D03*
X663650Y182000D02*
D03*
X656350D02*
D03*
X632000Y178000D02*
D03*
X639300D02*
D03*
X584650Y166000D02*
D03*
X577350D02*
D03*
X568650D02*
D03*
X561350D02*
D03*
X536650D02*
D03*
X529350D02*
D03*
X552650D02*
D03*
X545350D02*
D03*
X521000D02*
D03*
X513700D02*
D03*
X472650D02*
D03*
X465350D02*
D03*
X489000D02*
D03*
X481700D02*
D03*
X457000D02*
D03*
X449700D02*
D03*
X440650D02*
D03*
X433350D02*
D03*
X425000D02*
D03*
X417700D02*
D03*
X401000D02*
D03*
X393700D02*
D03*
X387350Y211000D02*
D03*
X394650D02*
D03*
X387350Y231000D02*
D03*
X394650D02*
D03*
X282650Y166000D02*
D03*
X275350D02*
D03*
X298650D02*
D03*
X291350D02*
D03*
X315300D02*
D03*
X308000D02*
D03*
X332300D02*
D03*
X325000D02*
D03*
X348000D02*
D03*
X340700D02*
D03*
X211150D02*
D03*
X203850D02*
D03*
X195000D02*
D03*
X187700D02*
D03*
X257500D02*
D03*
X250200D02*
D03*
X241150D02*
D03*
X233850D02*
D03*
X226150D02*
D03*
X218850D02*
D03*
X212700Y271500D02*
D03*
X220000D02*
D03*
X556350Y271000D02*
D03*
X563650D02*
D03*
X524350D02*
D03*
X531650D02*
D03*
X508000D02*
D03*
X515300D02*
D03*
X572000D02*
D03*
X579300D02*
D03*
X588000D02*
D03*
X595300D02*
D03*
X540000D02*
D03*
X547300D02*
D03*
X227700Y271500D02*
D03*
X235000D02*
D03*
X257500D02*
D03*
X264800D02*
D03*
X473350Y271000D02*
D03*
X480650D02*
D03*
X441350D02*
D03*
X448650D02*
D03*
X489350D02*
D03*
X496650D02*
D03*
X457350D02*
D03*
X464650D02*
D03*
X425000D02*
D03*
X432300D02*
D03*
X408700D02*
D03*
X416000D02*
D03*
X273350Y272000D02*
D03*
X280650D02*
D03*
X305350D02*
D03*
X312650D02*
D03*
X321350D02*
D03*
X328650D02*
D03*
X353700D02*
D03*
X361000D02*
D03*
X337350D02*
D03*
X344650D02*
D03*
X289000D02*
D03*
X296300D02*
D03*
X242700Y271500D02*
D03*
X250000D02*
D03*
X196350D02*
D03*
X203650D02*
D03*
X181350D02*
D03*
X188650D02*
D03*
D94*
X620000Y185000D02*
D03*
X614000D02*
D03*
D95*
X678000Y168000D02*
D03*
D96*
Y163000D02*
D03*
Y158000D02*
D03*
Y153000D02*
D03*
Y148000D02*
D03*
Y143000D02*
D03*
Y138000D02*
D03*
Y133000D02*
D03*
X638500D02*
D03*
Y138000D02*
D03*
Y143000D02*
D03*
Y148000D02*
D03*
Y153000D02*
D03*
Y158000D02*
D03*
Y163000D02*
D03*
Y168000D02*
D03*
D97*
X591000Y296000D02*
D03*
Y305000D02*
D03*
X600000D02*
D03*
Y296000D02*
D03*
X554000Y305000D02*
D03*
Y296000D02*
D03*
X545000D02*
D03*
Y305000D02*
D03*
D98*
X572417Y319549D02*
D03*
D99*
X563362Y292974D02*
D03*
X572417D02*
D03*
D100*
X581472D02*
D03*
D101*
X233000Y320000D02*
D03*
X223000Y300000D02*
D03*
X228000D02*
D03*
X238000Y320000D02*
D03*
X228000D02*
D03*
X223000D02*
D03*
X233000Y300000D02*
D03*
D102*
X238000D02*
D03*
D103*
X297000Y315000D02*
D03*
X269441D02*
D03*
D104*
X216000Y301000D02*
D03*
X209787D02*
D03*
X203000Y308000D02*
D03*
X196787D02*
D03*
X203213Y322000D02*
D03*
X197000D02*
D03*
X209787Y308000D02*
D03*
X216000D02*
D03*
Y322000D02*
D03*
X209787D02*
D03*
X203213Y315000D02*
D03*
X197000D02*
D03*
X216213D02*
D03*
X210000D02*
D03*
X150652Y184000D02*
D03*
X144439D02*
D03*
D105*
X308000Y287764D02*
D03*
Y298000D02*
D03*
D106*
X221000Y289000D02*
D03*
X233000D02*
D03*
D107*
X290000Y286787D02*
D03*
Y293000D02*
D03*
X297000Y286787D02*
D03*
Y293000D02*
D03*
X246000Y309000D02*
D03*
Y315213D02*
D03*
X168439Y164000D02*
D03*
Y157787D02*
D03*
Y178000D02*
D03*
Y171787D02*
D03*
D108*
X190000Y322000D02*
D03*
Y315000D02*
D03*
D109*
X257000Y296000D02*
D03*
Y312535D02*
D03*
D110*
X134439Y139780D02*
D03*
X116447D02*
D03*
D111*
X125439Y176000D02*
D03*
D112*
X168439Y212000D02*
D03*
Y225189D02*
D03*
D113*
Y188378D02*
D03*
Y248811D02*
D03*
D114*
X145439Y171000D02*
D03*
X150439D02*
D03*
X155439D02*
D03*
X160439D02*
D03*
X145439Y149000D02*
D03*
X155439D02*
D03*
X160439D02*
D03*
X150439D02*
D03*
D115*
X232500Y140000D02*
D03*
X241500D02*
D03*
X309500Y141000D02*
D03*
X318500D02*
D03*
X380500D02*
D03*
X389500D02*
D03*
X455500D02*
D03*
X464500D02*
D03*
X531500Y140000D02*
D03*
X540500D02*
D03*
X603500D02*
D03*
X612500D02*
D03*
D116*
X558500Y140319D02*
D03*
X563500D02*
D03*
X568500D02*
D03*
X573500D02*
D03*
X578500D02*
D03*
X583500D02*
D03*
X588500D02*
D03*
X593500D02*
D03*
X558500Y117681D02*
D03*
X563500D02*
D03*
X568500D02*
D03*
X573500D02*
D03*
X578500D02*
D03*
X583500D02*
D03*
X588500D02*
D03*
X593500D02*
D03*
X486814Y140319D02*
D03*
X491814D02*
D03*
X496814D02*
D03*
X501814D02*
D03*
X506814D02*
D03*
X511814D02*
D03*
X516814D02*
D03*
X521814D02*
D03*
X486814Y117681D02*
D03*
X491814Y117681D02*
D03*
X496814Y117681D02*
D03*
X501814D02*
D03*
X506814D02*
D03*
X511814D02*
D03*
X516814Y117681D02*
D03*
X521814Y117681D02*
D03*
X410100Y140319D02*
D03*
X415100D02*
D03*
X420100D02*
D03*
X425100D02*
D03*
X430100D02*
D03*
X435100D02*
D03*
X440100D02*
D03*
X445100D02*
D03*
X410100Y117681D02*
D03*
X415100D02*
D03*
X420100D02*
D03*
X425100D02*
D03*
X430100D02*
D03*
X435100D02*
D03*
X440100D02*
D03*
X445100D02*
D03*
X335900Y140319D02*
D03*
X340900D02*
D03*
X345900D02*
D03*
X350900D02*
D03*
X355900D02*
D03*
X360900D02*
D03*
X365900D02*
D03*
X370900D02*
D03*
X335900Y117681D02*
D03*
X340900Y117681D02*
D03*
X345900Y117681D02*
D03*
X350900D02*
D03*
X355900D02*
D03*
X360900D02*
D03*
X365900Y117681D02*
D03*
X370900Y117681D02*
D03*
X264214Y140319D02*
D03*
X269214D02*
D03*
X274214D02*
D03*
X279214D02*
D03*
X284214D02*
D03*
X289214D02*
D03*
X294214D02*
D03*
X299214D02*
D03*
X264214Y117681D02*
D03*
X269214Y117681D02*
D03*
X274214Y117681D02*
D03*
X279214D02*
D03*
X284214D02*
D03*
X289214D02*
D03*
X294214Y117681D02*
D03*
X299214Y117681D02*
D03*
X187500Y140319D02*
D03*
X192500D02*
D03*
X197500D02*
D03*
X202500D02*
D03*
X207500D02*
D03*
X212500D02*
D03*
X217500D02*
D03*
X222500D02*
D03*
X187500Y117681D02*
D03*
X192500Y117681D02*
D03*
X197500Y117681D02*
D03*
X202500D02*
D03*
X207500D02*
D03*
X212500D02*
D03*
X217500Y117681D02*
D03*
X222500Y117681D02*
D03*
D117*
X576300Y256000D02*
D03*
X592300D02*
D03*
X560000D02*
D03*
X544000D02*
D03*
X527800D02*
D03*
X511800D02*
D03*
X493000D02*
D03*
X477000D02*
D03*
X461000D02*
D03*
X445000D02*
D03*
X429000D02*
D03*
X413000D02*
D03*
X397000Y181000D02*
D03*
X357000Y256000D02*
D03*
X341000D02*
D03*
X325000D02*
D03*
X309000D02*
D03*
X293000D02*
D03*
X277000D02*
D03*
X207500Y181000D02*
D03*
X192500D02*
D03*
X186300Y256000D02*
D03*
X201300D02*
D03*
X216300D02*
D03*
X231300D02*
D03*
X246300D02*
D03*
X261300D02*
D03*
X517000Y181000D02*
D03*
X469000D02*
D03*
X533000D02*
D03*
X565000D02*
D03*
X581000D02*
D03*
X549000D02*
D03*
X421000D02*
D03*
X453000D02*
D03*
X485000D02*
D03*
X437000D02*
D03*
X311000D02*
D03*
X343000D02*
D03*
X295000D02*
D03*
X279000D02*
D03*
X327000D02*
D03*
X237500D02*
D03*
X222500D02*
D03*
X252500D02*
D03*
D118*
X572500Y264000D02*
D03*
X588500D02*
D03*
X556200D02*
D03*
X540200D02*
D03*
X524000D02*
D03*
X508000D02*
D03*
X489200D02*
D03*
X473200D02*
D03*
X457200D02*
D03*
X441200D02*
D03*
X425200D02*
D03*
X409200D02*
D03*
X400800Y173000D02*
D03*
X353200Y264000D02*
D03*
X337200D02*
D03*
X321200D02*
D03*
X305200D02*
D03*
X289200D02*
D03*
X273200D02*
D03*
X211300Y173000D02*
D03*
X196300D02*
D03*
X182500Y264000D02*
D03*
X197500D02*
D03*
X212500D02*
D03*
X227500D02*
D03*
X242500D02*
D03*
X257500D02*
D03*
X520800Y173000D02*
D03*
X472800D02*
D03*
X536800D02*
D03*
X568800D02*
D03*
X584800D02*
D03*
X552800D02*
D03*
X424800D02*
D03*
X456800D02*
D03*
X488800D02*
D03*
X440800D02*
D03*
X314800D02*
D03*
X346800D02*
D03*
X298800D02*
D03*
X282800D02*
D03*
X330800D02*
D03*
X241300D02*
D03*
X226300D02*
D03*
X256300D02*
D03*
D119*
X580000Y264000D02*
D03*
X596000D02*
D03*
X563700D02*
D03*
X547700D02*
D03*
X531500D02*
D03*
X515500D02*
D03*
X496700D02*
D03*
X480700D02*
D03*
X464700D02*
D03*
X448700D02*
D03*
X432700D02*
D03*
X416700D02*
D03*
X393300Y173000D02*
D03*
X360700Y264000D02*
D03*
X344700D02*
D03*
X328700D02*
D03*
X312700D02*
D03*
X296700D02*
D03*
X280700D02*
D03*
X203800Y173000D02*
D03*
X188800D02*
D03*
X190000Y264000D02*
D03*
X205000D02*
D03*
X220000D02*
D03*
X235000D02*
D03*
X250000D02*
D03*
X265000D02*
D03*
X513300Y173000D02*
D03*
X465300D02*
D03*
X529300D02*
D03*
X561300D02*
D03*
X577300D02*
D03*
X545300D02*
D03*
X417300D02*
D03*
X449300D02*
D03*
X481300D02*
D03*
X433300D02*
D03*
X307300D02*
D03*
X339300D02*
D03*
X291300D02*
D03*
X275300D02*
D03*
X323300D02*
D03*
X233800D02*
D03*
X218800D02*
D03*
X248800D02*
D03*
M02*
