G04*
G04 #@! TF.GenerationSoftware,Altium Limited,Altium Designer,20.0.9 (164)*
G04*
G04 Layer_Physical_Order=1*
G04 Layer_Color=255*
%FSLAX25Y25*%
%MOIN*%
G70*
G01*
G75*
%ADD10C,0.01000*%
%ADD13C,0.00500*%
%ADD16R,0.05500X0.04500*%
%ADD17R,0.04500X0.05500*%
%ADD29C,0.01968*%
%ADD30R,0.15748X0.07874*%
%ADD31R,0.07874X0.15748*%
%ADD32C,0.05906*%
%ADD33R,0.05906X0.05906*%
%ADD34C,0.17717*%
%ADD35C,0.06693*%
%ADD36R,0.06693X0.06693*%
%ADD37C,0.06000*%
%ADD38C,0.02362*%
G36*
X698471Y309366D02*
Y293685D01*
X698084Y293367D01*
X697800Y293424D01*
X696949Y293255D01*
X696228Y292773D01*
X695745Y292051D01*
X695600Y291321D01*
X695016Y291398D01*
X694292Y291303D01*
X693618Y291023D01*
X693039Y290579D01*
X692595Y290000D01*
X692315Y289326D01*
X692220Y288602D01*
X692315Y287879D01*
X692595Y287205D01*
X693039Y286626D01*
X693618Y286181D01*
X694292Y285902D01*
X695016Y285807D01*
X695739Y285902D01*
X696026Y286021D01*
X696525Y285686D01*
Y282463D01*
X696026Y282129D01*
X695739Y282247D01*
X695016Y282343D01*
X694292Y282247D01*
X693618Y281968D01*
X693039Y281524D01*
X692595Y280945D01*
X692315Y280271D01*
X692220Y279547D01*
X692315Y278824D01*
X692595Y278149D01*
X693039Y277570D01*
X693618Y277126D01*
X694292Y276847D01*
X695016Y276752D01*
X695739Y276847D01*
X696026Y276965D01*
X696525Y276631D01*
Y256964D01*
X696026Y256630D01*
X695723Y256755D01*
X695000Y256851D01*
X694277Y256755D01*
X693602Y256476D01*
X693023Y256032D01*
X692579Y255453D01*
X692300Y254779D01*
X692204Y254055D01*
X692300Y253332D01*
X692579Y252657D01*
X693023Y252078D01*
X693602Y251634D01*
X694277Y251355D01*
X695000Y251260D01*
X695723Y251355D01*
X696026Y251480D01*
X696525Y251146D01*
Y247909D01*
X696026Y247575D01*
X695723Y247700D01*
X695000Y247796D01*
X694277Y247700D01*
X693602Y247421D01*
X693023Y246977D01*
X692579Y246398D01*
X692300Y245724D01*
X692204Y245000D01*
X692300Y244276D01*
X692579Y243602D01*
X693023Y243023D01*
X693602Y242579D01*
X694277Y242300D01*
X695000Y242204D01*
X695723Y242300D01*
X696026Y242425D01*
X696525Y242091D01*
Y239719D01*
X691751Y234945D01*
X691400Y235015D01*
X690549Y234845D01*
X689827Y234363D01*
X689345Y233642D01*
X689176Y232791D01*
X689345Y231940D01*
X689827Y231218D01*
X690549Y230736D01*
X691400Y230567D01*
X692251Y230736D01*
X692973Y231218D01*
X693455Y231940D01*
X693624Y232791D01*
X693554Y233142D01*
X698009Y237597D01*
X698471Y237406D01*
Y120633D01*
X679366Y101529D01*
X147171D01*
X146935Y101970D01*
X147055Y102149D01*
X147224Y103000D01*
X147055Y103851D01*
X146572Y104572D01*
X145851Y105054D01*
X145000Y105224D01*
X144649Y105154D01*
X142274Y107528D01*
Y143228D01*
X142572Y143428D01*
X143054Y144149D01*
X143224Y145000D01*
X143054Y145851D01*
X142572Y146572D01*
X141851Y147055D01*
X141000Y147224D01*
X140149Y147055D01*
X139427Y146572D01*
X138945Y145851D01*
X138776Y145000D01*
X138945Y144149D01*
X139427Y143428D01*
X139725Y143228D01*
Y107000D01*
X139822Y106512D01*
X140099Y106099D01*
X142846Y103351D01*
X142776Y103000D01*
X142946Y102149D01*
X143065Y101970D01*
X142829Y101529D01*
X120633D01*
X101529Y120633D01*
Y309366D01*
X120633Y328471D01*
X371373D01*
X371523Y327971D01*
X370928Y327572D01*
X370445Y326851D01*
X370276Y326000D01*
X370445Y325149D01*
X370928Y324428D01*
X371226Y324228D01*
Y225500D01*
X371322Y225012D01*
X371599Y224599D01*
X375999Y220199D01*
X376412Y219922D01*
X376900Y219826D01*
X392728D01*
X392928Y219528D01*
X393649Y219045D01*
X394500Y218876D01*
X395351Y219045D01*
X396073Y219528D01*
X396555Y220249D01*
X396724Y221100D01*
X396555Y221951D01*
X396073Y222673D01*
X395351Y223155D01*
X394500Y223324D01*
X393649Y223155D01*
X392928Y222673D01*
X392728Y222375D01*
X377428D01*
X373775Y226028D01*
Y324228D01*
X374073Y324428D01*
X374555Y325149D01*
X374724Y326000D01*
X374555Y326851D01*
X374073Y327572D01*
X373477Y327971D01*
X373627Y328471D01*
X679366D01*
X698471Y309366D01*
D02*
G37*
%LPC*%
G36*
X633000Y323987D02*
X631968Y323851D01*
X631007Y323453D01*
X630181Y322819D01*
X629547Y321993D01*
X629149Y321032D01*
X629013Y320000D01*
X629149Y318968D01*
X629547Y318007D01*
X630181Y317181D01*
X631007Y316547D01*
X631968Y316149D01*
X633000Y316013D01*
X634032Y316149D01*
X634993Y316547D01*
X635819Y317181D01*
X636453Y318007D01*
X636851Y318968D01*
X636987Y320000D01*
X636851Y321032D01*
X636453Y321993D01*
X635819Y322819D01*
X634993Y323453D01*
X634032Y323851D01*
X633000Y323987D01*
D02*
G37*
G36*
X120000Y320906D02*
X118067Y320716D01*
X116209Y320152D01*
X114497Y319236D01*
X112995Y318005D01*
X111764Y316504D01*
X110848Y314791D01*
X110284Y312933D01*
X110094Y311000D01*
X110284Y309067D01*
X110848Y307209D01*
X111764Y305497D01*
X112995Y303995D01*
X114497Y302764D01*
X116209Y301848D01*
X118067Y301284D01*
X120000Y301094D01*
X121933Y301284D01*
X123791Y301848D01*
X125504Y302764D01*
X127005Y303995D01*
X128236Y305497D01*
X129152Y307209D01*
X129716Y309067D01*
X129906Y311000D01*
X129716Y312933D01*
X129152Y314791D01*
X128236Y316504D01*
X127005Y318005D01*
X125504Y319236D01*
X123791Y320152D01*
X121933Y320716D01*
X120000Y320906D01*
D02*
G37*
G36*
X681000Y319906D02*
X679067Y319716D01*
X677209Y319152D01*
X675496Y318236D01*
X673995Y317005D01*
X672763Y315504D01*
X671848Y313791D01*
X671284Y311933D01*
X671094Y310000D01*
X671284Y308067D01*
X671848Y306209D01*
X672763Y304497D01*
X673995Y302995D01*
X675496Y301764D01*
X677209Y300848D01*
X679067Y300284D01*
X681000Y300094D01*
X682933Y300284D01*
X684791Y300848D01*
X686504Y301764D01*
X688005Y302995D01*
X689236Y304497D01*
X690152Y306209D01*
X690716Y308067D01*
X690906Y310000D01*
X690716Y311933D01*
X690152Y313791D01*
X689236Y315504D01*
X688005Y317005D01*
X686504Y318236D01*
X684791Y319152D01*
X682933Y319716D01*
X681000Y319906D01*
D02*
G37*
G36*
X358400Y288074D02*
X291700D01*
X291212Y287978D01*
X290799Y287701D01*
X280951Y277854D01*
X280600Y277924D01*
X279749Y277755D01*
X279028Y277273D01*
X278545Y276551D01*
X278376Y275700D01*
X278545Y274849D01*
X279028Y274128D01*
X279749Y273645D01*
X280600Y273476D01*
X281451Y273645D01*
X282172Y274128D01*
X282655Y274849D01*
X282824Y275700D01*
X282754Y276051D01*
X292228Y285525D01*
X305133D01*
X305285Y285026D01*
X305099Y284901D01*
X299851Y279654D01*
X299500Y279724D01*
X298649Y279555D01*
X297927Y279072D01*
X297445Y278351D01*
X297276Y277500D01*
X297445Y276649D01*
X297927Y275927D01*
X298649Y275445D01*
X299500Y275276D01*
X300351Y275445D01*
X301073Y275927D01*
X301555Y276649D01*
X301724Y277500D01*
X301654Y277852D01*
X306528Y282726D01*
X345972D01*
X347244Y281453D01*
X346998Y280993D01*
X346338Y281124D01*
X345487Y280955D01*
X344765Y280472D01*
X344283Y279751D01*
X344114Y278900D01*
X344283Y278049D01*
X344765Y277327D01*
X345063Y277128D01*
Y143392D01*
X344601Y143201D01*
X335832Y151970D01*
X335419Y152246D01*
X334931Y152343D01*
X299387D01*
X299338Y152843D01*
X299851Y152945D01*
X300572Y153428D01*
X301055Y154149D01*
X301224Y155000D01*
X301055Y155851D01*
X300572Y156572D01*
X299851Y157054D01*
X299000Y157224D01*
X298149Y157054D01*
X297428Y156572D01*
X297239Y156290D01*
X295518D01*
X295367Y156790D01*
X295572Y156928D01*
X296055Y157649D01*
X296224Y158500D01*
X296055Y159351D01*
X295572Y160073D01*
X295274Y160272D01*
Y169200D01*
X295178Y169688D01*
X294901Y170101D01*
X284774Y180228D01*
Y245800D01*
X284678Y246288D01*
X284401Y246701D01*
X266775Y264328D01*
Y276228D01*
X267073Y276428D01*
X267555Y277149D01*
X267724Y278000D01*
X267555Y278851D01*
X267073Y279573D01*
X266351Y280055D01*
X265500Y280224D01*
X264649Y280055D01*
X263928Y279573D01*
X263445Y278851D01*
X263276Y278000D01*
X263445Y277149D01*
X263928Y276428D01*
X264226Y276228D01*
Y263800D01*
X264322Y263312D01*
X264599Y262899D01*
X282225Y245272D01*
Y179700D01*
X282323Y179212D01*
X282599Y178799D01*
X292725Y168672D01*
Y160272D01*
X292427Y160073D01*
X291945Y159351D01*
X291776Y158500D01*
X291945Y157649D01*
X292427Y156928D01*
X292633Y156790D01*
X292482Y156290D01*
X279782D01*
X279573Y156604D01*
X278851Y157086D01*
X278000Y157255D01*
X277149Y157086D01*
X276923Y157512D01*
X276973Y157545D01*
X277455Y158266D01*
X277624Y159117D01*
X277455Y159968D01*
X276973Y160690D01*
X276251Y161172D01*
X275400Y161341D01*
X274549Y161172D01*
X273828Y160690D01*
X273345Y159968D01*
X273176Y159117D01*
X273246Y158766D01*
X268599Y154119D01*
X268322Y153705D01*
X268274Y153464D01*
X267775Y153513D01*
Y160000D01*
X267677Y160488D01*
X267401Y160901D01*
X256901Y171401D01*
X256488Y171677D01*
X256000Y171774D01*
X226028D01*
X209174Y188628D01*
Y266928D01*
X209472Y267127D01*
X209955Y267849D01*
X210124Y268700D01*
X209955Y269551D01*
X209472Y270272D01*
X208751Y270755D01*
X207900Y270924D01*
X207049Y270755D01*
X206328Y270272D01*
X205845Y269551D01*
X205676Y268700D01*
X205845Y267849D01*
X206328Y267127D01*
X206626Y266928D01*
Y188100D01*
X206722Y187612D01*
X206999Y187199D01*
X224599Y169599D01*
X225012Y169323D01*
X225500Y169226D01*
X255472D01*
X265226Y159472D01*
Y120000D01*
X265322Y119512D01*
X265599Y119099D01*
X270499Y114199D01*
X270912Y113923D01*
X271400Y113826D01*
X300328D01*
X300528Y113528D01*
X301249Y113046D01*
X302100Y112876D01*
X302951Y113046D01*
X303673Y113528D01*
X304155Y114249D01*
X304324Y115100D01*
X304155Y115951D01*
X303673Y116673D01*
X302951Y117155D01*
X302100Y117324D01*
X301249Y117155D01*
X300528Y116673D01*
X300328Y116375D01*
X271928D01*
X267775Y120528D01*
Y146704D01*
X268274Y146754D01*
X268322Y146512D01*
X268599Y146099D01*
X273099Y141599D01*
X273512Y141323D01*
X274000Y141226D01*
X312072D01*
X312825Y140472D01*
Y118000D01*
X312923Y117512D01*
X313199Y117099D01*
X316299Y113999D01*
X316712Y113723D01*
X317200Y113626D01*
X327428D01*
X327627Y113328D01*
X328349Y112846D01*
X329200Y112676D01*
X330051Y112846D01*
X330772Y113328D01*
X331255Y114049D01*
X331424Y114900D01*
X331319Y115426D01*
X331694Y115926D01*
X345169D01*
X345656Y116023D01*
X346070Y116299D01*
X353917Y124146D01*
X354460Y123981D01*
X354545Y123549D01*
X355028Y122827D01*
X355749Y122345D01*
X356600Y122176D01*
X357451Y122345D01*
X358172Y122827D01*
X358225Y122907D01*
X358726Y122755D01*
Y114789D01*
X358049Y114655D01*
X357328Y114172D01*
X356845Y113451D01*
X356676Y112600D01*
X356845Y111749D01*
X357328Y111028D01*
X358049Y110546D01*
X358900Y110376D01*
X359751Y110546D01*
X360472Y111028D01*
X360955Y111749D01*
X361124Y112600D01*
X361024Y113100D01*
X361177Y113329D01*
X361275Y113817D01*
Y121413D01*
X361661Y121730D01*
X361931Y121676D01*
X362782Y121845D01*
X363504Y122327D01*
X363986Y123049D01*
X364155Y123900D01*
X363986Y124751D01*
X363504Y125472D01*
X363206Y125672D01*
Y283269D01*
X363109Y283757D01*
X362832Y284170D01*
X359301Y287701D01*
X358888Y287978D01*
X358400Y288074D01*
D02*
G37*
G36*
X212700Y283774D02*
X188332D01*
X187844Y283678D01*
X187430Y283401D01*
X183899Y279870D01*
X183623Y279456D01*
X183526Y278968D01*
Y113200D01*
X183623Y112712D01*
X183899Y112299D01*
X184445Y111752D01*
X184427Y111573D01*
X183946Y110851D01*
X183776Y110000D01*
X183946Y109149D01*
X184427Y108428D01*
X185149Y107946D01*
X186000Y107776D01*
X186851Y107946D01*
X187573Y108428D01*
X188055Y109149D01*
X188224Y110000D01*
X188055Y110851D01*
X187573Y111573D01*
X187275Y111772D01*
Y112000D01*
X187178Y112488D01*
X186901Y112901D01*
X186074Y113728D01*
Y120870D01*
X186536Y121061D01*
X195346Y112251D01*
X195276Y111900D01*
X195446Y111049D01*
X195928Y110327D01*
X196649Y109845D01*
X197500Y109676D01*
X198351Y109845D01*
X199073Y110327D01*
X199555Y111049D01*
X199724Y111900D01*
X199555Y112751D01*
X199073Y113472D01*
X198351Y113954D01*
X197500Y114124D01*
X197149Y114054D01*
X188075Y123128D01*
Y130470D01*
X188536Y130661D01*
X193346Y125852D01*
X193276Y125500D01*
X193446Y124649D01*
X193928Y123927D01*
X194649Y123445D01*
X195500Y123276D01*
X196351Y123445D01*
X197073Y123927D01*
X197555Y124649D01*
X197724Y125500D01*
X197555Y126351D01*
X197073Y127073D01*
X196351Y127555D01*
X195500Y127724D01*
X195149Y127654D01*
X190075Y132728D01*
Y273097D01*
X190575Y273361D01*
X190726Y273259D01*
Y139000D01*
X190823Y138512D01*
X191099Y138099D01*
X205346Y123852D01*
X205276Y123500D01*
X205445Y122649D01*
X205927Y121927D01*
X206649Y121446D01*
X207500Y121276D01*
X208351Y121446D01*
X209072Y121927D01*
X209555Y122649D01*
X209724Y123500D01*
X209555Y124351D01*
X209072Y125073D01*
X208351Y125555D01*
X207500Y125724D01*
X207149Y125654D01*
X193274Y139528D01*
Y273628D01*
X193572Y273828D01*
X194054Y274549D01*
X194224Y275400D01*
X194054Y276251D01*
X193737Y276726D01*
X194005Y277225D01*
X207972D01*
X218599Y266599D01*
X219012Y266322D01*
X219500Y266226D01*
X244728D01*
X244928Y265928D01*
X245649Y265445D01*
X246500Y265276D01*
X247351Y265445D01*
X248073Y265928D01*
X248555Y266649D01*
X248724Y267500D01*
X248555Y268351D01*
X248073Y269073D01*
X247351Y269555D01*
X246500Y269724D01*
X245649Y269555D01*
X244928Y269073D01*
X244728Y268775D01*
X220028D01*
X209401Y279401D01*
X208988Y279678D01*
X208500Y279774D01*
X191896D01*
X191409Y279678D01*
X190995Y279401D01*
X187892Y276298D01*
X187615Y275884D01*
X187518Y275396D01*
Y273507D01*
X187525Y273471D01*
Y270674D01*
X187139Y270356D01*
X186800Y270424D01*
X186461Y270356D01*
X186074Y270674D01*
Y278440D01*
X188859Y281225D01*
X212172D01*
X221346Y272052D01*
X221276Y271700D01*
X221445Y270849D01*
X221927Y270128D01*
X222649Y269645D01*
X223500Y269476D01*
X224351Y269645D01*
X225073Y270128D01*
X225555Y270849D01*
X225724Y271700D01*
X225555Y272551D01*
X225073Y273272D01*
X224351Y273755D01*
X223500Y273924D01*
X223148Y273854D01*
X213601Y283401D01*
X213188Y283678D01*
X212700Y283774D01*
D02*
G37*
G36*
X159346Y282874D02*
X149472D01*
Y265126D01*
X159346D01*
Y282874D01*
D02*
G37*
G36*
X653000Y323987D02*
X651968Y323851D01*
X651007Y323453D01*
X650181Y322819D01*
X649547Y321993D01*
X649149Y321032D01*
X649013Y320000D01*
X649149Y318968D01*
X649547Y318007D01*
X650181Y317181D01*
X651007Y316547D01*
X651725Y316249D01*
Y293528D01*
X616274Y258077D01*
X615774Y258284D01*
Y262472D01*
X643901Y290599D01*
X644177Y291012D01*
X644275Y291500D01*
Y316249D01*
X644993Y316547D01*
X645819Y317181D01*
X646453Y318007D01*
X646851Y318968D01*
X646987Y320000D01*
X646851Y321032D01*
X646453Y321993D01*
X645819Y322819D01*
X644993Y323453D01*
X644032Y323851D01*
X643000Y323987D01*
X641968Y323851D01*
X641007Y323453D01*
X640181Y322819D01*
X639547Y321993D01*
X639149Y321032D01*
X639013Y320000D01*
X639149Y318968D01*
X639547Y318007D01*
X640181Y317181D01*
X641007Y316547D01*
X641725Y316249D01*
Y292028D01*
X613792Y264095D01*
X613272Y263972D01*
X612551Y264455D01*
X612292Y264506D01*
X612147Y264984D01*
X618581Y271419D01*
X618913Y271915D01*
X619029Y272500D01*
Y303399D01*
X619072Y303428D01*
X619555Y304149D01*
X619724Y305000D01*
X619555Y305851D01*
X619072Y306573D01*
X618351Y307055D01*
X617500Y307224D01*
X616649Y307055D01*
X615928Y306573D01*
X615445Y305851D01*
X615276Y305000D01*
X615445Y304149D01*
X615928Y303428D01*
X615971Y303399D01*
Y273133D01*
X606919Y264081D01*
X606587Y263585D01*
X606471Y263000D01*
Y136362D01*
X606333Y136262D01*
X605971Y136141D01*
X605351Y136555D01*
X604500Y136724D01*
X603649Y136555D01*
X602927Y136073D01*
X602445Y135351D01*
X602276Y134500D01*
X602445Y133649D01*
X602927Y132928D01*
X603649Y132446D01*
X604500Y132276D01*
X605351Y132446D01*
X606073Y132928D01*
X606101Y132971D01*
X608152D01*
Y127121D01*
X607652Y126854D01*
X607351Y127055D01*
X606500Y127224D01*
X605649Y127055D01*
X604927Y126573D01*
X604728Y126275D01*
X595028D01*
X591654Y129648D01*
X591724Y130000D01*
X591555Y130851D01*
X591073Y131572D01*
X590419Y132009D01*
X590235Y132533D01*
X594001Y136299D01*
X594277Y136712D01*
X594375Y137200D01*
Y148073D01*
X594874Y148401D01*
X595500Y148276D01*
X596351Y148445D01*
X597073Y148927D01*
X597555Y149649D01*
X597724Y150500D01*
X597654Y150852D01*
X600901Y154099D01*
X601178Y154512D01*
X601274Y155000D01*
Y177228D01*
X601573Y177427D01*
X602055Y178149D01*
X602224Y179000D01*
X602055Y179851D01*
X601573Y180572D01*
X600851Y181054D01*
X600000Y181224D01*
X599149Y181054D01*
X598427Y180572D01*
X597945Y179851D01*
X597776Y179000D01*
X597945Y178149D01*
X598427Y177427D01*
X598726Y177228D01*
Y155528D01*
X595852Y152654D01*
X595500Y152724D01*
X594874Y152599D01*
X594375Y152927D01*
Y265828D01*
X594672Y266027D01*
X595155Y266749D01*
X595324Y267600D01*
X595155Y268451D01*
X594672Y269173D01*
X593951Y269655D01*
X593100Y269824D01*
X592249Y269655D01*
X591528Y269173D01*
X591045Y268451D01*
X590876Y267600D01*
X591045Y266749D01*
X591528Y266027D01*
X591825Y265828D01*
Y137728D01*
X581117Y127020D01*
X580656Y127266D01*
X580755Y127762D01*
X580586Y128613D01*
X580104Y129335D01*
X579382Y129817D01*
X578531Y129986D01*
X578180Y129916D01*
X576775Y131321D01*
Y146728D01*
X577072Y146927D01*
X577555Y147649D01*
X577724Y148500D01*
X577555Y149351D01*
X577072Y150073D01*
X576351Y150555D01*
X575500Y150724D01*
X574649Y150555D01*
X573927Y150073D01*
X573445Y149351D01*
X573276Y148500D01*
X573445Y147649D01*
X573927Y146927D01*
X574226Y146728D01*
Y130793D01*
X574323Y130306D01*
X574599Y129892D01*
X576377Y128114D01*
X576307Y127762D01*
X576454Y127024D01*
X576180Y126524D01*
X575022D01*
X574823Y126822D01*
X574101Y127304D01*
X573250Y127474D01*
X572399Y127304D01*
X571677Y126822D01*
X571195Y126101D01*
X571065Y125445D01*
X570556Y125247D01*
X567774Y128028D01*
Y147928D01*
X568274Y148196D01*
X568649Y147945D01*
X569500Y147776D01*
X570351Y147945D01*
X571072Y148427D01*
X571555Y149149D01*
X571724Y150000D01*
X571654Y150352D01*
X572528Y151225D01*
X577972D01*
X578346Y150852D01*
X578276Y150500D01*
X578445Y149649D01*
X578928Y148927D01*
X579649Y148445D01*
X580500Y148276D01*
X581225Y148421D01*
X581726Y148140D01*
Y134905D01*
X581227Y134573D01*
X580745Y133851D01*
X580576Y133000D01*
X580745Y132149D01*
X581227Y131428D01*
X581949Y130946D01*
X582800Y130776D01*
X583651Y130946D01*
X584373Y131428D01*
X584855Y132149D01*
X585024Y133000D01*
X584855Y133851D01*
X584373Y134573D01*
X584274Y134638D01*
Y274500D01*
X584177Y274988D01*
X583901Y275401D01*
X575401Y283901D01*
X574988Y284177D01*
X574500Y284275D01*
X468000D01*
X467512Y284177D01*
X467099Y283901D01*
X447472Y264275D01*
X439028D01*
X433775Y269528D01*
Y273484D01*
X434072Y273683D01*
X434555Y274405D01*
X434724Y275256D01*
X434555Y276107D01*
X434072Y276828D01*
X433628Y277126D01*
X433779Y277625D01*
X436772D01*
X444767Y269631D01*
X444734Y269110D01*
X444527Y268972D01*
X444045Y268251D01*
X443876Y267400D01*
X444045Y266549D01*
X444527Y265827D01*
X445249Y265345D01*
X446100Y265176D01*
X446951Y265345D01*
X447673Y265827D01*
X448155Y266549D01*
X448324Y267400D01*
X448155Y268251D01*
X447673Y268972D01*
X447374Y269172D01*
Y270100D01*
X447277Y270588D01*
X447001Y271001D01*
X438201Y279801D01*
X437788Y280078D01*
X437300Y280174D01*
X411600D01*
X411112Y280078D01*
X410699Y279801D01*
X406699Y275801D01*
X406423Y275388D01*
X406325Y274900D01*
Y257887D01*
X405939Y257570D01*
X405669Y257624D01*
X404818Y257455D01*
X404096Y256973D01*
X403614Y256251D01*
X403445Y255400D01*
X403614Y254549D01*
X404096Y253828D01*
X404460Y253585D01*
Y127128D01*
X404227Y126972D01*
X403745Y126251D01*
X403576Y125400D01*
X403745Y124549D01*
X404227Y123828D01*
X404949Y123345D01*
X405800Y123176D01*
X406651Y123345D01*
X407373Y123828D01*
X407855Y124549D01*
X407985Y125205D01*
X408494Y125403D01*
X410146Y123751D01*
X410076Y123400D01*
X410245Y122549D01*
X410728Y121827D01*
X410807Y121774D01*
X410655Y121274D01*
X398728D01*
X394274Y125728D01*
Y131728D01*
X394572Y131928D01*
X395055Y132649D01*
X395224Y133500D01*
X395055Y134351D01*
X394572Y135073D01*
X393851Y135555D01*
X393000Y135724D01*
X392149Y135555D01*
X391427Y135073D01*
X390945Y134351D01*
X390776Y133500D01*
X390945Y132649D01*
X391427Y131928D01*
X391725Y131728D01*
Y125200D01*
X391823Y124712D01*
X392099Y124299D01*
X397299Y119099D01*
X397712Y118823D01*
X398200Y118726D01*
X415300D01*
X415788Y118823D01*
X416201Y119099D01*
X421289Y124186D01*
X421649Y123945D01*
X422500Y123776D01*
X423351Y123945D01*
X424073Y124427D01*
X424555Y125149D01*
X424724Y126000D01*
X424555Y126851D01*
X424304Y127225D01*
X424572Y127726D01*
X427741D01*
X430625Y124841D01*
Y111772D01*
X430328Y111573D01*
X429845Y110851D01*
X429676Y110000D01*
X429820Y109274D01*
X429540Y108774D01*
X398474D01*
X398137Y109154D01*
X398193Y109431D01*
X398023Y110282D01*
X397541Y111004D01*
X396820Y111486D01*
X395969Y111655D01*
X395118Y111486D01*
X394396Y111004D01*
X393914Y110282D01*
X393745Y109431D01*
X393914Y108580D01*
X394396Y107859D01*
X394889Y107529D01*
X394738Y107029D01*
X382029D01*
Y133899D01*
X382072Y133928D01*
X382555Y134649D01*
X382724Y135500D01*
X382555Y136351D01*
X382072Y137073D01*
X381351Y137555D01*
X380500Y137724D01*
X379649Y137555D01*
X378927Y137073D01*
X378445Y136351D01*
X378276Y135500D01*
X378445Y134649D01*
X378927Y133928D01*
X378971Y133899D01*
Y107029D01*
X310529D01*
Y133399D01*
X310573Y133428D01*
X311055Y134149D01*
X311224Y135000D01*
X311055Y135851D01*
X310573Y136573D01*
X309851Y137055D01*
X309000Y137224D01*
X308149Y137055D01*
X307428Y136573D01*
X306945Y135851D01*
X306776Y135000D01*
X306945Y134149D01*
X307428Y133428D01*
X307471Y133399D01*
Y107029D01*
X238633D01*
X235029Y110634D01*
Y131899D01*
X235072Y131928D01*
X235555Y132649D01*
X235724Y133500D01*
X235670Y133770D01*
X235987Y134157D01*
X251944D01*
X251945Y134149D01*
X252428Y133428D01*
X253149Y132946D01*
X254000Y132776D01*
X254339Y132844D01*
X254726Y132526D01*
Y121028D01*
X247272Y113575D01*
X240172D01*
X239972Y113873D01*
X239251Y114355D01*
X238400Y114524D01*
X237549Y114355D01*
X236827Y113873D01*
X236345Y113151D01*
X236176Y112300D01*
X236345Y111449D01*
X236827Y110728D01*
X237549Y110246D01*
X238400Y110076D01*
X239251Y110246D01*
X239972Y110728D01*
X240172Y111026D01*
X247800D01*
X248288Y111123D01*
X248701Y111399D01*
X256901Y119599D01*
X257177Y120012D01*
X257275Y120500D01*
Y141500D01*
X257177Y141988D01*
X256901Y142401D01*
X248801Y150501D01*
X248388Y150777D01*
X247900Y150874D01*
X246172D01*
X245972Y151172D01*
X245251Y151655D01*
X244400Y151824D01*
X243549Y151655D01*
X242828Y151172D01*
X242345Y150451D01*
X242176Y149600D01*
X242345Y148749D01*
X242828Y148028D01*
X243549Y147546D01*
X244400Y147376D01*
X245251Y147546D01*
X245972Y148028D01*
X246172Y148326D01*
X247372D01*
X254726Y140972D01*
Y137474D01*
X254339Y137156D01*
X254000Y137224D01*
X253149Y137055D01*
X252627Y136706D01*
X230918D01*
X230472Y137373D01*
X229751Y137855D01*
X228900Y138024D01*
X228049Y137855D01*
X227327Y137373D01*
X226845Y136651D01*
X226676Y135800D01*
X226845Y134949D01*
X227327Y134228D01*
X228049Y133746D01*
X228900Y133576D01*
X229751Y133746D01*
X230366Y134157D01*
X231013D01*
X231330Y133770D01*
X231276Y133500D01*
X231445Y132649D01*
X231927Y131928D01*
X231971Y131899D01*
Y110000D01*
X232087Y109415D01*
X232419Y108919D01*
X236919Y104419D01*
X237415Y104087D01*
X238000Y103971D01*
X602500D01*
X603085Y104087D01*
X603581Y104419D01*
X610763Y111600D01*
X611094Y112096D01*
X611210Y112681D01*
Y134319D01*
X611094Y134904D01*
X610763Y135400D01*
X610581Y135581D01*
X610085Y135913D01*
X609529Y136023D01*
Y260823D01*
X610029Y260974D01*
X610127Y260827D01*
X610426Y260628D01*
Y222700D01*
X610523Y222212D01*
X610799Y221799D01*
X615046Y217551D01*
X614976Y217200D01*
X615145Y216349D01*
X615627Y215628D01*
X616349Y215145D01*
X616658Y215084D01*
X616803Y214605D01*
X613351Y211154D01*
X613000Y211224D01*
X612149Y211055D01*
X611427Y210573D01*
X610945Y209851D01*
X610776Y209000D01*
X610945Y208149D01*
X611427Y207428D01*
X612149Y206945D01*
X613000Y206776D01*
X613851Y206945D01*
X614572Y207428D01*
X615055Y208149D01*
X615224Y209000D01*
X615154Y209351D01*
X620801Y214999D01*
X621077Y215412D01*
X621174Y215900D01*
Y217528D01*
X621473Y217727D01*
X621955Y218449D01*
X622124Y219300D01*
X621955Y220151D01*
X621473Y220872D01*
X620751Y221355D01*
X619900Y221524D01*
X619049Y221355D01*
X618328Y220872D01*
X617845Y220151D01*
X617682Y219328D01*
X617200Y219424D01*
X616849Y219354D01*
X612975Y223228D01*
Y228833D01*
X613475Y228985D01*
X613599Y228799D01*
X617546Y224851D01*
X617476Y224500D01*
X617645Y223649D01*
X618127Y222927D01*
X618849Y222445D01*
X619700Y222276D01*
X620551Y222445D01*
X621273Y222927D01*
X621755Y223649D01*
X621924Y224500D01*
X621755Y225351D01*
X621273Y226073D01*
X620551Y226555D01*
X619700Y226724D01*
X619348Y226654D01*
X615774Y230228D01*
Y247140D01*
X616274Y247421D01*
X617000Y247276D01*
X617851Y247445D01*
X618573Y247927D01*
X619055Y248649D01*
X619224Y249500D01*
X619135Y249945D01*
X619055Y250351D01*
X619475Y250605D01*
X619928Y249927D01*
X620649Y249445D01*
X621500Y249276D01*
X622351Y249445D01*
X623072Y249927D01*
X623555Y250649D01*
X623724Y251500D01*
X623555Y252351D01*
X623072Y253073D01*
X622775Y253272D01*
Y256972D01*
X626528Y260725D01*
X647472D01*
X650925Y257272D01*
Y184149D01*
X650774Y184048D01*
X650275Y184315D01*
Y237000D01*
X650177Y237488D01*
X649901Y237901D01*
X644601Y243201D01*
X644188Y243478D01*
X643700Y243575D01*
X635672D01*
X635472Y243872D01*
X634751Y244355D01*
X633900Y244524D01*
X633049Y244355D01*
X632774Y244171D01*
X632274Y244438D01*
Y255228D01*
X632573Y255428D01*
X633055Y256149D01*
X633224Y257000D01*
X633055Y257851D01*
X632573Y258573D01*
X631851Y259055D01*
X631000Y259224D01*
X630149Y259055D01*
X629427Y258573D01*
X628945Y257851D01*
X628776Y257000D01*
X628945Y256149D01*
X629427Y255428D01*
X629726Y255228D01*
Y221528D01*
X614099Y205901D01*
X613823Y205488D01*
X613726Y205000D01*
Y120000D01*
X613823Y119512D01*
X614099Y119099D01*
X617447Y115751D01*
X617149Y115032D01*
X617013Y114000D01*
X617149Y112968D01*
X617547Y112007D01*
X618181Y111181D01*
X619007Y110547D01*
X619968Y110149D01*
X621000Y110013D01*
X622032Y110149D01*
X622993Y110547D01*
X623726Y111109D01*
X624226Y110961D01*
Y109404D01*
X624261Y109224D01*
X624145Y109051D01*
X623976Y108200D01*
X624145Y107349D01*
X624627Y106628D01*
X625349Y106146D01*
X626200Y105976D01*
X627051Y106146D01*
X627773Y106628D01*
X628255Y107349D01*
X628424Y108200D01*
X628255Y109051D01*
X627773Y109773D01*
X627051Y110255D01*
X626775Y110310D01*
Y112566D01*
X627275Y112665D01*
X627547Y112007D01*
X628181Y111181D01*
X629007Y110547D01*
X629968Y110149D01*
X631000Y110013D01*
X632032Y110149D01*
X632993Y110547D01*
X633819Y111181D01*
X634453Y112007D01*
X634851Y112968D01*
X634987Y114000D01*
X634851Y115032D01*
X634553Y115751D01*
X636401Y117599D01*
X636678Y118012D01*
X636774Y118500D01*
Y194472D01*
X645264Y202961D01*
X645725Y202770D01*
Y189528D01*
X641099Y184901D01*
X640823Y184488D01*
X640726Y184000D01*
Y130250D01*
X638250D01*
Y123750D01*
X645750D01*
Y130250D01*
X643274D01*
Y183472D01*
X647264Y187461D01*
X647725Y187270D01*
Y176590D01*
X647823Y176102D01*
X648099Y175689D01*
X648898Y174889D01*
X649045Y174149D01*
X649528Y173427D01*
X650249Y172945D01*
X651100Y172776D01*
X651951Y172945D01*
X652672Y173427D01*
X653155Y174149D01*
X653324Y175000D01*
X653155Y175851D01*
X652672Y176573D01*
X651951Y177055D01*
X651100Y177224D01*
X650774Y177159D01*
X650275Y177569D01*
Y180124D01*
X650774Y180329D01*
X651349Y179946D01*
X652200Y179776D01*
X653051Y179946D01*
X653772Y180428D01*
X654255Y181149D01*
X654424Y182000D01*
X654255Y182851D01*
X653772Y183572D01*
X653475Y183772D01*
Y257800D01*
X653377Y258288D01*
X653101Y258701D01*
X648901Y262901D01*
X648488Y263177D01*
X648000Y263275D01*
X626000D01*
X625730Y263221D01*
X625484Y263682D01*
X653901Y292099D01*
X654178Y292512D01*
X654275Y293000D01*
Y316249D01*
X654993Y316547D01*
X655819Y317181D01*
X656453Y318007D01*
X656851Y318968D01*
X656987Y320000D01*
X656851Y321032D01*
X656453Y321993D01*
X655819Y322819D01*
X654993Y323453D01*
X654032Y323851D01*
X653000Y323987D01*
D02*
G37*
G36*
X654200Y268524D02*
X653349Y268355D01*
X652628Y267873D01*
X652145Y267151D01*
X651976Y266300D01*
X652145Y265449D01*
X652628Y264727D01*
X653349Y264245D01*
X654200Y264076D01*
X654552Y264146D01*
X665726Y252972D01*
Y171126D01*
X665226Y171004D01*
X664551Y171455D01*
X663700Y171624D01*
X662849Y171455D01*
X662127Y170973D01*
X661645Y170251D01*
X661476Y169400D01*
X661645Y168549D01*
X662127Y167827D01*
X662426Y167628D01*
Y130528D01*
X660172Y128275D01*
X654750D01*
Y130250D01*
X647250D01*
Y123750D01*
X654750D01*
Y125725D01*
X660700D01*
X661188Y125822D01*
X661601Y126099D01*
X664601Y129099D01*
X664878Y129512D01*
X664974Y130000D01*
Y167407D01*
X665226Y167597D01*
X665726Y167348D01*
Y127528D01*
X659972Y121774D01*
X648000D01*
X647512Y121677D01*
X647099Y121401D01*
X643082Y117385D01*
X642993Y117453D01*
X642032Y117851D01*
X641000Y117987D01*
X639968Y117851D01*
X639007Y117453D01*
X638181Y116819D01*
X637547Y115993D01*
X637149Y115032D01*
X637013Y114000D01*
X637149Y112968D01*
X637547Y112007D01*
X638181Y111181D01*
X639007Y110547D01*
X639968Y110149D01*
X641000Y110013D01*
X642032Y110149D01*
X642993Y110547D01*
X643819Y111181D01*
X644453Y112007D01*
X644851Y112968D01*
X644987Y114000D01*
X644851Y115032D01*
X644700Y115397D01*
X648528Y119226D01*
X660500D01*
X660988Y119323D01*
X661401Y119599D01*
X667901Y126099D01*
X668178Y126512D01*
X668274Y127000D01*
Y178104D01*
X668775Y178154D01*
X668822Y177912D01*
X669099Y177499D01*
X684346Y162251D01*
X684276Y161900D01*
X684445Y161049D01*
X684928Y160327D01*
X685649Y159845D01*
X686500Y159676D01*
X687351Y159845D01*
X688072Y160327D01*
X688555Y161049D01*
X688724Y161900D01*
X688555Y162751D01*
X688072Y163472D01*
X687351Y163954D01*
X686500Y164124D01*
X686149Y164054D01*
X671275Y178928D01*
Y215928D01*
X671572Y216127D01*
X672055Y216849D01*
X672224Y217700D01*
X672055Y218551D01*
X671572Y219272D01*
X670851Y219755D01*
X670000Y219924D01*
X669149Y219755D01*
X668775Y219504D01*
X668274Y219772D01*
Y246226D01*
X669228D01*
X669427Y245928D01*
X670149Y245445D01*
X671000Y245276D01*
X671851Y245445D01*
X672573Y245928D01*
X673055Y246649D01*
X673224Y247500D01*
X673055Y248351D01*
X672573Y249073D01*
X671851Y249555D01*
X671000Y249724D01*
X670149Y249555D01*
X669427Y249073D01*
X669228Y248775D01*
X668274D01*
Y253500D01*
X668178Y253988D01*
X667901Y254401D01*
X656354Y265949D01*
X656424Y266300D01*
X656255Y267151D01*
X655772Y267873D01*
X655051Y268355D01*
X654200Y268524D01*
D02*
G37*
G36*
X390347Y244346D02*
X381653D01*
Y235653D01*
X390347D01*
Y244346D01*
D02*
G37*
G36*
X322406Y243704D02*
X321361Y243566D01*
X320388Y243163D01*
X319553Y242522D01*
X318912Y241687D01*
X318509Y240713D01*
X318371Y239669D01*
X318509Y238625D01*
X318912Y237652D01*
X319553Y236816D01*
X320388Y236175D01*
X321361Y235772D01*
X322406Y235635D01*
X323450Y235772D01*
X324423Y236175D01*
X325258Y236816D01*
X325900Y237652D01*
X326303Y238625D01*
X326440Y239669D01*
X326303Y240713D01*
X325900Y241687D01*
X325258Y242522D01*
X324423Y243163D01*
X323450Y243566D01*
X322406Y243704D01*
D02*
G37*
G36*
X310594D02*
X309550Y243566D01*
X308577Y243163D01*
X307742Y242522D01*
X307100Y241687D01*
X306697Y240713D01*
X306560Y239669D01*
X306697Y238625D01*
X307100Y237652D01*
X307742Y236816D01*
X308577Y236175D01*
X309550Y235772D01*
X310594Y235635D01*
X311639Y235772D01*
X312612Y236175D01*
X313447Y236816D01*
X314088Y237652D01*
X314491Y238625D01*
X314629Y239669D01*
X314491Y240713D01*
X314088Y241687D01*
X313447Y242522D01*
X312612Y243163D01*
X311639Y243566D01*
X310594Y243704D01*
D02*
G37*
G36*
X243906D02*
X242861Y243566D01*
X241888Y243163D01*
X241053Y242522D01*
X240412Y241687D01*
X240009Y240713D01*
X239871Y239669D01*
X240009Y238625D01*
X240412Y237652D01*
X241053Y236816D01*
X241888Y236175D01*
X242861Y235772D01*
X243906Y235635D01*
X244950Y235772D01*
X245923Y236175D01*
X246758Y236816D01*
X247400Y237652D01*
X247803Y238625D01*
X247940Y239669D01*
X247803Y240713D01*
X247400Y241687D01*
X246758Y242522D01*
X245923Y243163D01*
X244950Y243566D01*
X243906Y243704D01*
D02*
G37*
G36*
X232094D02*
X231050Y243566D01*
X230077Y243163D01*
X229242Y242522D01*
X228600Y241687D01*
X228197Y240713D01*
X228060Y239669D01*
X228197Y238625D01*
X228600Y237652D01*
X229242Y236816D01*
X230077Y236175D01*
X231050Y235772D01*
X232094Y235635D01*
X233139Y235772D01*
X234112Y236175D01*
X234947Y236816D01*
X235588Y237652D01*
X235991Y238625D01*
X236129Y239669D01*
X235991Y240713D01*
X235588Y241687D01*
X234947Y242522D01*
X234112Y243163D01*
X233139Y243566D01*
X232094Y243704D01*
D02*
G37*
G36*
X332248Y237798D02*
X331204Y237661D01*
X330231Y237258D01*
X329395Y236617D01*
X328754Y235781D01*
X328351Y234808D01*
X328214Y233764D01*
X328351Y232720D01*
X328754Y231747D01*
X329395Y230911D01*
X330231Y230270D01*
X331204Y229867D01*
X332248Y229729D01*
X333292Y229867D01*
X334265Y230270D01*
X335101Y230911D01*
X335742Y231747D01*
X336145Y232720D01*
X336282Y233764D01*
X336145Y234808D01*
X335742Y235781D01*
X335101Y236617D01*
X334265Y237258D01*
X333292Y237661D01*
X332248Y237798D01*
D02*
G37*
G36*
X300752D02*
X299708Y237661D01*
X298735Y237258D01*
X297899Y236617D01*
X297258Y235781D01*
X296855Y234808D01*
X296718Y233764D01*
X296855Y232720D01*
X297258Y231747D01*
X297899Y230911D01*
X298735Y230270D01*
X299708Y229867D01*
X300752Y229729D01*
X301796Y229867D01*
X302769Y230270D01*
X303605Y230911D01*
X304246Y231747D01*
X304649Y232720D01*
X304786Y233764D01*
X304649Y234808D01*
X304246Y235781D01*
X303605Y236617D01*
X302769Y237258D01*
X301796Y237661D01*
X300752Y237798D01*
D02*
G37*
G36*
X253748D02*
X252704Y237661D01*
X251731Y237258D01*
X250895Y236617D01*
X250254Y235781D01*
X249851Y234808D01*
X249713Y233764D01*
X249851Y232720D01*
X250254Y231747D01*
X250895Y230911D01*
X251731Y230270D01*
X252704Y229867D01*
X253748Y229729D01*
X254792Y229867D01*
X255765Y230270D01*
X256601Y230911D01*
X257242Y231747D01*
X257645Y232720D01*
X257783Y233764D01*
X257645Y234808D01*
X257242Y235781D01*
X256601Y236617D01*
X255765Y237258D01*
X254792Y237661D01*
X253748Y237798D01*
D02*
G37*
G36*
X222252D02*
X221208Y237661D01*
X220235Y237258D01*
X219399Y236617D01*
X218758Y235781D01*
X218355Y234808D01*
X218217Y233764D01*
X218355Y232720D01*
X218758Y231747D01*
X219399Y230911D01*
X220235Y230270D01*
X221208Y229867D01*
X222252Y229729D01*
X223296Y229867D01*
X224269Y230270D01*
X225105Y230911D01*
X225746Y231747D01*
X226149Y232720D01*
X226287Y233764D01*
X226149Y234808D01*
X225746Y235781D01*
X225105Y236617D01*
X224269Y237258D01*
X223296Y237661D01*
X222252Y237798D01*
D02*
G37*
G36*
X337169Y227956D02*
X336125Y227818D01*
X335152Y227415D01*
X334316Y226774D01*
X333675Y225939D01*
X333272Y224965D01*
X333135Y223921D01*
X333272Y222877D01*
X333675Y221904D01*
X334316Y221068D01*
X335152Y220427D01*
X336125Y220024D01*
X337169Y219887D01*
X338213Y220024D01*
X339187Y220427D01*
X340022Y221068D01*
X340663Y221904D01*
X341066Y222877D01*
X341204Y223921D01*
X341066Y224965D01*
X340663Y225939D01*
X340022Y226774D01*
X339187Y227415D01*
X338213Y227818D01*
X337169Y227956D01*
D02*
G37*
G36*
X295831D02*
X294787Y227818D01*
X293813Y227415D01*
X292978Y226774D01*
X292337Y225939D01*
X291934Y224965D01*
X291796Y223921D01*
X291934Y222877D01*
X292337Y221904D01*
X292978Y221068D01*
X293813Y220427D01*
X294787Y220024D01*
X295831Y219887D01*
X296875Y220024D01*
X297848Y220427D01*
X298684Y221068D01*
X299325Y221904D01*
X299728Y222877D01*
X299865Y223921D01*
X299728Y224965D01*
X299325Y225939D01*
X298684Y226774D01*
X297848Y227415D01*
X296875Y227818D01*
X295831Y227956D01*
D02*
G37*
G36*
X258669D02*
X257625Y227818D01*
X256652Y227415D01*
X255816Y226774D01*
X255175Y225939D01*
X254772Y224965D01*
X254635Y223921D01*
X254772Y222877D01*
X255175Y221904D01*
X255816Y221068D01*
X256652Y220427D01*
X257625Y220024D01*
X258669Y219887D01*
X259713Y220024D01*
X260686Y220427D01*
X261522Y221068D01*
X262163Y221904D01*
X262566Y222877D01*
X262704Y223921D01*
X262566Y224965D01*
X262163Y225939D01*
X261522Y226774D01*
X260686Y227415D01*
X259713Y227818D01*
X258669Y227956D01*
D02*
G37*
G36*
X217331D02*
X216287Y227818D01*
X215314Y227415D01*
X214478Y226774D01*
X213837Y225939D01*
X213434Y224965D01*
X213296Y223921D01*
X213434Y222877D01*
X213837Y221904D01*
X214478Y221068D01*
X215314Y220427D01*
X216287Y220024D01*
X217331Y219887D01*
X218375Y220024D01*
X219348Y220427D01*
X220184Y221068D01*
X220825Y221904D01*
X221228Y222877D01*
X221365Y223921D01*
X221228Y224965D01*
X220825Y225939D01*
X220184Y226774D01*
X219348Y227415D01*
X218375Y227818D01*
X217331Y227956D01*
D02*
G37*
G36*
X695000Y222323D02*
X694277Y222228D01*
X693602Y221949D01*
X693023Y221504D01*
X692579Y220925D01*
X692300Y220251D01*
X692204Y219528D01*
X692300Y218804D01*
X692579Y218130D01*
X693023Y217551D01*
X693602Y217107D01*
X694277Y216827D01*
X695000Y216732D01*
X695723Y216827D01*
X696398Y217107D01*
X696977Y217551D01*
X697421Y218130D01*
X697700Y218804D01*
X697796Y219528D01*
X697700Y220251D01*
X697421Y220925D01*
X696977Y221504D01*
X696398Y221949D01*
X695723Y222228D01*
X695000Y222323D01*
D02*
G37*
G36*
X240250Y216750D02*
X233750D01*
Y213774D01*
X232772D01*
X232573Y214072D01*
X231851Y214555D01*
X231000Y214724D01*
X230149Y214555D01*
X229428Y214072D01*
X228945Y213351D01*
X228776Y212500D01*
X228945Y211649D01*
X229428Y210928D01*
X230149Y210445D01*
X231000Y210276D01*
X231851Y210445D01*
X232573Y210928D01*
X232772Y211226D01*
X233750D01*
Y209250D01*
X240250D01*
Y216750D01*
D02*
G37*
G36*
X337169Y217129D02*
X336125Y216991D01*
X335152Y216588D01*
X334316Y215947D01*
X333675Y215112D01*
X333272Y214139D01*
X333135Y213094D01*
X333272Y212050D01*
X333675Y211077D01*
X334316Y210242D01*
X335152Y209600D01*
X336125Y209197D01*
X337169Y209060D01*
X338213Y209197D01*
X339187Y209600D01*
X340022Y210242D01*
X340663Y211077D01*
X341066Y212050D01*
X341204Y213094D01*
X341066Y214139D01*
X340663Y215112D01*
X340022Y215947D01*
X339187Y216588D01*
X338213Y216991D01*
X337169Y217129D01*
D02*
G37*
G36*
X295831D02*
X294787Y216991D01*
X293813Y216588D01*
X292978Y215947D01*
X292337Y215112D01*
X291934Y214139D01*
X291796Y213094D01*
X291934Y212050D01*
X292337Y211077D01*
X292978Y210242D01*
X293813Y209600D01*
X294787Y209197D01*
X295831Y209060D01*
X296875Y209197D01*
X297848Y209600D01*
X298684Y210242D01*
X299325Y211077D01*
X299728Y212050D01*
X299865Y213094D01*
X299728Y214139D01*
X299325Y215112D01*
X298684Y215947D01*
X297848Y216588D01*
X296875Y216991D01*
X295831Y217129D01*
D02*
G37*
G36*
X258669D02*
X257625Y216991D01*
X256652Y216588D01*
X255816Y215947D01*
X255175Y215112D01*
X254772Y214139D01*
X254635Y213094D01*
X254772Y212050D01*
X255175Y211077D01*
X255816Y210242D01*
X256652Y209600D01*
X257625Y209197D01*
X258669Y209060D01*
X259713Y209197D01*
X260686Y209600D01*
X261522Y210242D01*
X262163Y211077D01*
X262566Y212050D01*
X262704Y213094D01*
X262566Y214139D01*
X262163Y215112D01*
X261522Y215947D01*
X260686Y216588D01*
X259713Y216991D01*
X258669Y217129D01*
D02*
G37*
G36*
X217331D02*
X216287Y216991D01*
X215314Y216588D01*
X214478Y215947D01*
X213837Y215112D01*
X213434Y214139D01*
X213296Y213094D01*
X213434Y212050D01*
X213837Y211077D01*
X214478Y210242D01*
X215314Y209600D01*
X216287Y209197D01*
X217331Y209060D01*
X218375Y209197D01*
X219348Y209600D01*
X220184Y210242D01*
X220825Y211077D01*
X221228Y212050D01*
X221365Y213094D01*
X221228Y214139D01*
X220825Y215112D01*
X220184Y215947D01*
X219348Y216588D01*
X218375Y216991D01*
X217331Y217129D01*
D02*
G37*
G36*
X695000Y213268D02*
X694277Y213173D01*
X693602Y212893D01*
X693023Y212449D01*
X692579Y211870D01*
X692300Y211196D01*
X692204Y210472D01*
X692300Y209749D01*
X692579Y209075D01*
X693023Y208496D01*
X693602Y208051D01*
X694277Y207772D01*
X695000Y207677D01*
X695723Y207772D01*
X696398Y208051D01*
X696977Y208496D01*
X697421Y209075D01*
X697700Y209749D01*
X697796Y210472D01*
X697700Y211196D01*
X697421Y211870D01*
X696977Y212449D01*
X696398Y212893D01*
X695723Y213173D01*
X695000Y213268D01*
D02*
G37*
G36*
X396000Y244384D02*
X394865Y244235D01*
X393808Y243797D01*
X392900Y243100D01*
X392203Y242192D01*
X391765Y241135D01*
X391616Y240000D01*
X391765Y238865D01*
X392203Y237808D01*
X392900Y236900D01*
X393808Y236203D01*
X394865Y235765D01*
X396000Y235616D01*
X397135Y235765D01*
X398052Y236145D01*
X400225Y233972D01*
Y208528D01*
X398552Y206855D01*
X397635Y207235D01*
X396500Y207384D01*
X395365Y207235D01*
X394308Y206797D01*
X393400Y206100D01*
X392703Y205192D01*
X392265Y204135D01*
X392116Y203000D01*
X392265Y201865D01*
X392703Y200808D01*
X393400Y199900D01*
X394308Y199203D01*
X395365Y198765D01*
X396500Y198616D01*
X397635Y198765D01*
X398692Y199203D01*
X399600Y199900D01*
X400297Y200808D01*
X400735Y201865D01*
X400884Y203000D01*
X400735Y204135D01*
X400354Y205052D01*
X402401Y207099D01*
X402677Y207512D01*
X402774Y208000D01*
Y234500D01*
X402677Y234988D01*
X402401Y235401D01*
X399854Y237948D01*
X400235Y238865D01*
X400384Y240000D01*
X400235Y241135D01*
X399797Y242192D01*
X399100Y243100D01*
X398192Y243797D01*
X397135Y244235D01*
X396000Y244384D01*
D02*
G37*
G36*
X320250Y217750D02*
X313750D01*
Y210250D01*
X314749D01*
X314984Y209809D01*
X314945Y209751D01*
X314776Y208900D01*
X314945Y208049D01*
X315427Y207328D01*
X316149Y206845D01*
X317000Y206676D01*
X317851Y206845D01*
X318572Y207328D01*
X319055Y208049D01*
X319224Y208900D01*
X319055Y209751D01*
X319016Y209809D01*
X319251Y210250D01*
X320250D01*
Y217750D01*
D02*
G37*
G36*
X331264Y208271D02*
X330220Y208133D01*
X329246Y207730D01*
X328411Y207089D01*
X327770Y206254D01*
X327367Y205280D01*
X327229Y204236D01*
X327367Y203192D01*
X327770Y202219D01*
X328411Y201383D01*
X329246Y200742D01*
X330220Y200339D01*
X331264Y200202D01*
X332308Y200339D01*
X333281Y200742D01*
X334117Y201383D01*
X334758Y202219D01*
X335161Y203192D01*
X335298Y204236D01*
X335161Y205280D01*
X334758Y206254D01*
X334117Y207089D01*
X333281Y207730D01*
X332308Y208133D01*
X331264Y208271D01*
D02*
G37*
G36*
X300752D02*
X299708Y208133D01*
X298735Y207730D01*
X297899Y207089D01*
X297258Y206254D01*
X296855Y205280D01*
X296718Y204236D01*
X296855Y203192D01*
X297258Y202219D01*
X297899Y201383D01*
X298735Y200742D01*
X299708Y200339D01*
X300752Y200202D01*
X301796Y200339D01*
X302769Y200742D01*
X303605Y201383D01*
X304246Y202219D01*
X304649Y203192D01*
X304786Y204236D01*
X304649Y205280D01*
X304246Y206254D01*
X303605Y207089D01*
X302769Y207730D01*
X301796Y208133D01*
X300752Y208271D01*
D02*
G37*
G36*
X252764D02*
X251720Y208133D01*
X250746Y207730D01*
X249911Y207089D01*
X249270Y206254D01*
X248867Y205280D01*
X248729Y204236D01*
X248867Y203192D01*
X249270Y202219D01*
X249911Y201383D01*
X250746Y200742D01*
X251720Y200339D01*
X252764Y200202D01*
X253808Y200339D01*
X254781Y200742D01*
X255617Y201383D01*
X256258Y202219D01*
X256661Y203192D01*
X256798Y204236D01*
X256661Y205280D01*
X256258Y206254D01*
X255617Y207089D01*
X254781Y207730D01*
X253808Y208133D01*
X252764Y208271D01*
D02*
G37*
G36*
X222252D02*
X221208Y208133D01*
X220235Y207730D01*
X219399Y207089D01*
X218758Y206254D01*
X218355Y205280D01*
X218217Y204236D01*
X218355Y203192D01*
X218758Y202219D01*
X219399Y201383D01*
X220235Y200742D01*
X221208Y200339D01*
X222252Y200202D01*
X223296Y200339D01*
X224269Y200742D01*
X225105Y201383D01*
X225746Y202219D01*
X226149Y203192D01*
X226287Y204236D01*
X226149Y205280D01*
X225746Y206254D01*
X225105Y207089D01*
X224269Y207730D01*
X223296Y208133D01*
X222252Y208271D01*
D02*
G37*
G36*
X390846Y207347D02*
X382154D01*
Y198653D01*
X390846D01*
Y207347D01*
D02*
G37*
G36*
X322406Y202365D02*
X321361Y202228D01*
X320388Y201825D01*
X319553Y201184D01*
X318912Y200348D01*
X318509Y199375D01*
X318371Y198331D01*
X318509Y197287D01*
X318912Y196314D01*
X319553Y195478D01*
X320388Y194837D01*
X321361Y194434D01*
X322406Y194296D01*
X323450Y194434D01*
X324423Y194837D01*
X325258Y195478D01*
X325900Y196314D01*
X326303Y197287D01*
X326440Y198331D01*
X326303Y199375D01*
X325900Y200348D01*
X325258Y201184D01*
X324423Y201825D01*
X323450Y202228D01*
X322406Y202365D01*
D02*
G37*
G36*
X310594D02*
X309550Y202228D01*
X308577Y201825D01*
X307742Y201184D01*
X307100Y200348D01*
X306697Y199375D01*
X306560Y198331D01*
X306697Y197287D01*
X307100Y196314D01*
X307742Y195478D01*
X308577Y194837D01*
X309550Y194434D01*
X310594Y194296D01*
X311639Y194434D01*
X312612Y194837D01*
X313447Y195478D01*
X314088Y196314D01*
X314491Y197287D01*
X314629Y198331D01*
X314491Y199375D01*
X314088Y200348D01*
X313447Y201184D01*
X312612Y201825D01*
X311639Y202228D01*
X310594Y202365D01*
D02*
G37*
G36*
X243906D02*
X242861Y202228D01*
X241888Y201825D01*
X241053Y201184D01*
X240412Y200348D01*
X240009Y199375D01*
X239871Y198331D01*
X240009Y197287D01*
X240412Y196314D01*
X241053Y195478D01*
X241888Y194837D01*
X242861Y194434D01*
X243906Y194296D01*
X244950Y194434D01*
X245923Y194837D01*
X246758Y195478D01*
X247400Y196314D01*
X247803Y197287D01*
X247940Y198331D01*
X247803Y199375D01*
X247400Y200348D01*
X246758Y201184D01*
X245923Y201825D01*
X244950Y202228D01*
X243906Y202365D01*
D02*
G37*
G36*
X232094D02*
X231050Y202228D01*
X230077Y201825D01*
X229242Y201184D01*
X228600Y200348D01*
X228197Y199375D01*
X228060Y198331D01*
X228197Y197287D01*
X228600Y196314D01*
X229242Y195478D01*
X230077Y194837D01*
X231050Y194434D01*
X232094Y194296D01*
X233139Y194434D01*
X234112Y194837D01*
X234947Y195478D01*
X235588Y196314D01*
X235991Y197287D01*
X236129Y198331D01*
X235991Y199375D01*
X235588Y200348D01*
X234947Y201184D01*
X234112Y201825D01*
X233139Y202228D01*
X232094Y202365D01*
D02*
G37*
G36*
X695000Y186796D02*
X694277Y186700D01*
X693602Y186421D01*
X693023Y185977D01*
X692579Y185398D01*
X692300Y184724D01*
X692204Y184000D01*
X692300Y183276D01*
X692579Y182602D01*
X693023Y182023D01*
X693602Y181579D01*
X694277Y181300D01*
X695000Y181204D01*
X695723Y181300D01*
X696398Y181579D01*
X696977Y182023D01*
X697421Y182602D01*
X697700Y183276D01*
X697796Y184000D01*
X697700Y184724D01*
X697421Y185398D01*
X696977Y185977D01*
X696398Y186421D01*
X695723Y186700D01*
X695000Y186796D01*
D02*
G37*
G36*
Y177740D02*
X694277Y177645D01*
X693602Y177366D01*
X693023Y176922D01*
X692579Y176343D01*
X692300Y175668D01*
X692204Y174945D01*
X692300Y174221D01*
X692579Y173547D01*
X693023Y172968D01*
X693602Y172524D01*
X694277Y172245D01*
X695000Y172149D01*
X695723Y172245D01*
X696398Y172524D01*
X696977Y172968D01*
X697421Y173547D01*
X697700Y174221D01*
X697796Y174945D01*
X697700Y175668D01*
X697421Y176343D01*
X696977Y176922D01*
X696398Y177366D01*
X695723Y177645D01*
X695000Y177740D01*
D02*
G37*
G36*
X168439Y170118D02*
X167588Y169948D01*
X166867Y169466D01*
X166385Y168745D01*
X166216Y167894D01*
X166226Y167843D01*
X157912Y159529D01*
X152601D01*
X152573Y159573D01*
X151851Y160055D01*
X151000Y160224D01*
X150149Y160055D01*
X149427Y159573D01*
X148945Y158851D01*
X148776Y158000D01*
X148945Y157149D01*
X149427Y156428D01*
X150149Y155946D01*
X151000Y155776D01*
X151851Y155946D01*
X152573Y156428D01*
X152601Y156471D01*
X158546D01*
X159131Y156587D01*
X159627Y156919D01*
X168389Y165680D01*
X168439Y165670D01*
X169290Y165839D01*
X170012Y166321D01*
X170494Y167043D01*
X170663Y167894D01*
X170494Y168745D01*
X170012Y169466D01*
X169290Y169948D01*
X168439Y170118D01*
D02*
G37*
G36*
X150500Y234224D02*
X149649Y234055D01*
X148927Y233573D01*
X148445Y232851D01*
X148276Y232000D01*
X148445Y231149D01*
X148927Y230428D01*
X149649Y229945D01*
X149705Y229934D01*
X149977Y229662D01*
Y163898D01*
X149945Y163851D01*
X149776Y163000D01*
X149945Y162149D01*
X150427Y161427D01*
X151149Y160945D01*
X152000Y160776D01*
X152851Y160945D01*
X153572Y161427D01*
X154054Y162149D01*
X154224Y163000D01*
X154054Y163851D01*
X154023Y163898D01*
Y230500D01*
X153869Y231274D01*
X153431Y231931D01*
X152566Y232796D01*
X152555Y232851D01*
X152073Y233573D01*
X151351Y234055D01*
X150500Y234224D01*
D02*
G37*
G36*
X200000Y165155D02*
X199149Y164986D01*
X198427Y164504D01*
X197945Y163782D01*
X197776Y162931D01*
X197945Y162080D01*
X198427Y161359D01*
X198818Y161098D01*
X198712Y160567D01*
X198649Y160555D01*
X197927Y160073D01*
X197445Y159351D01*
X197276Y158500D01*
X197445Y157649D01*
X197927Y156928D01*
X198649Y156446D01*
X199500Y156276D01*
X200351Y156446D01*
X201073Y156928D01*
X201554Y157649D01*
X201724Y158500D01*
X201654Y158852D01*
X202528Y159725D01*
X206070D01*
X206261Y159264D01*
X197852Y150854D01*
X197500Y150924D01*
X196649Y150754D01*
X195928Y150273D01*
X195446Y149551D01*
X195276Y148700D01*
X195446Y147849D01*
X195928Y147127D01*
X196649Y146645D01*
X197500Y146476D01*
X198351Y146645D01*
X199073Y147127D01*
X199555Y147849D01*
X199724Y148700D01*
X199654Y149051D01*
X208328Y157726D01*
X247172D01*
X255846Y149051D01*
X255776Y148700D01*
X255945Y147849D01*
X256428Y147127D01*
X257149Y146645D01*
X258000Y146476D01*
X258851Y146645D01*
X259573Y147127D01*
X260055Y147849D01*
X260224Y148700D01*
X260055Y149551D01*
X259573Y150273D01*
X258851Y150754D01*
X258000Y150924D01*
X257648Y150854D01*
X249239Y159264D01*
X249430Y159725D01*
X253472D01*
X257346Y155851D01*
X257276Y155500D01*
X257445Y154649D01*
X257927Y153928D01*
X258649Y153445D01*
X259500Y153276D01*
X260351Y153445D01*
X260725Y153696D01*
X261226Y153428D01*
Y152772D01*
X260928Y152573D01*
X260445Y151851D01*
X260276Y151000D01*
X260445Y150149D01*
X260928Y149427D01*
X261649Y148945D01*
X262500Y148776D01*
X263351Y148945D01*
X264072Y149427D01*
X264555Y150149D01*
X264724Y151000D01*
X264555Y151851D01*
X264072Y152573D01*
X263774Y152772D01*
Y157800D01*
X263678Y158288D01*
X263401Y158701D01*
X258270Y163832D01*
X257856Y164109D01*
X257369Y164206D01*
X201772D01*
X201572Y164504D01*
X200851Y164986D01*
X200000Y165155D01*
D02*
G37*
G36*
X695000Y151796D02*
X694277Y151700D01*
X693602Y151421D01*
X693023Y150977D01*
X692579Y150398D01*
X692300Y149724D01*
X692204Y149000D01*
X692300Y148276D01*
X692579Y147602D01*
X693023Y147023D01*
X693602Y146579D01*
X694277Y146300D01*
X695000Y146204D01*
X695723Y146300D01*
X696398Y146579D01*
X696977Y147023D01*
X697421Y147602D01*
X697700Y148276D01*
X697796Y149000D01*
X697700Y149724D01*
X697421Y150398D01*
X696977Y150977D01*
X696398Y151421D01*
X695723Y151700D01*
X695000Y151796D01*
D02*
G37*
G36*
Y142740D02*
X694277Y142645D01*
X693602Y142366D01*
X693023Y141922D01*
X692579Y141343D01*
X692300Y140668D01*
X692204Y139945D01*
X692300Y139221D01*
X692579Y138547D01*
X693023Y137968D01*
X693602Y137524D01*
X694277Y137244D01*
X695000Y137149D01*
X695723Y137244D01*
X696398Y137524D01*
X696977Y137968D01*
X697421Y138547D01*
X697700Y139221D01*
X697796Y139945D01*
X697700Y140668D01*
X697421Y141343D01*
X696977Y141922D01*
X696398Y142366D01*
X695723Y142645D01*
X695000Y142740D01*
D02*
G37*
G36*
X295000Y131724D02*
X294149Y131554D01*
X293427Y131072D01*
X293228Y130774D01*
X287772D01*
X287573Y131072D01*
X286851Y131554D01*
X286000Y131724D01*
X285149Y131554D01*
X284427Y131072D01*
X283945Y130351D01*
X283776Y129500D01*
X283945Y128649D01*
X284427Y127927D01*
X285149Y127445D01*
X286000Y127276D01*
X286851Y127445D01*
X287573Y127927D01*
X287772Y128226D01*
X293228D01*
X293427Y127927D01*
X294149Y127445D01*
X295000Y127276D01*
X295851Y127445D01*
X296572Y127927D01*
X297055Y128649D01*
X297224Y129500D01*
X297055Y130351D01*
X296572Y131072D01*
X295851Y131554D01*
X295000Y131724D01*
D02*
G37*
G36*
X211000Y156724D02*
X210149Y156554D01*
X209427Y156072D01*
X208945Y155351D01*
X208776Y154500D01*
X208945Y153649D01*
X209427Y152927D01*
X209725Y152728D01*
Y135500D01*
X209823Y135012D01*
X210099Y134599D01*
X221146Y123551D01*
X221076Y123200D01*
X221245Y122349D01*
X221727Y121627D01*
X222449Y121145D01*
X223300Y120976D01*
X224151Y121145D01*
X224872Y121627D01*
X225355Y122349D01*
X225524Y123200D01*
X225355Y124051D01*
X224872Y124773D01*
X224151Y125254D01*
X223300Y125424D01*
X222949Y125354D01*
X212275Y136028D01*
Y152728D01*
X212573Y152927D01*
X213055Y153649D01*
X213224Y154500D01*
X213055Y155351D01*
X212573Y156072D01*
X211851Y156554D01*
X211000Y156724D01*
D02*
G37*
G36*
X368000Y286324D02*
X367149Y286155D01*
X366427Y285672D01*
X365945Y284951D01*
X365776Y284100D01*
X365945Y283249D01*
X366427Y282527D01*
X366725Y282328D01*
Y124472D01*
X366427Y124273D01*
X365945Y123551D01*
X365776Y122700D01*
X365945Y121849D01*
X366427Y121127D01*
X367149Y120645D01*
X368000Y120476D01*
X368851Y120645D01*
X369572Y121127D01*
X370055Y121849D01*
X370224Y122700D01*
X370055Y123551D01*
X369572Y124273D01*
X369274Y124472D01*
Y282328D01*
X369572Y282527D01*
X370055Y283249D01*
X370224Y284100D01*
X370055Y284951D01*
X369572Y285672D01*
X368851Y286155D01*
X368000Y286324D01*
D02*
G37*
G36*
X680000Y128906D02*
X678067Y128716D01*
X676209Y128152D01*
X674497Y127236D01*
X672995Y126005D01*
X671764Y124504D01*
X670848Y122791D01*
X670284Y120933D01*
X670094Y119000D01*
X670284Y117067D01*
X670848Y115209D01*
X671764Y113496D01*
X672995Y111995D01*
X674497Y110764D01*
X676209Y109848D01*
X678067Y109284D01*
X680000Y109094D01*
X681933Y109284D01*
X683791Y109848D01*
X685503Y110764D01*
X687005Y111995D01*
X688237Y113496D01*
X689152Y115209D01*
X689716Y117067D01*
X689906Y119000D01*
X689716Y120933D01*
X689152Y122791D01*
X688237Y124504D01*
X687005Y126005D01*
X685503Y127236D01*
X683791Y128152D01*
X681933Y128716D01*
X680000Y128906D01*
D02*
G37*
G36*
X120000D02*
X118067Y128716D01*
X116209Y128152D01*
X114497Y127236D01*
X112995Y126005D01*
X111764Y124504D01*
X110848Y122791D01*
X110284Y120933D01*
X110094Y119000D01*
X110284Y117067D01*
X110848Y115209D01*
X111764Y113496D01*
X112995Y111995D01*
X114497Y110764D01*
X116209Y109848D01*
X118067Y109284D01*
X120000Y109094D01*
X121933Y109284D01*
X123791Y109848D01*
X125504Y110764D01*
X127005Y111995D01*
X128236Y113496D01*
X129152Y115209D01*
X129716Y117067D01*
X129906Y119000D01*
X129716Y120933D01*
X129152Y122791D01*
X128236Y124504D01*
X127005Y126005D01*
X125504Y127236D01*
X123791Y128152D01*
X121933Y128716D01*
X120000Y128906D01*
D02*
G37*
%LPD*%
G36*
X360027Y283371D02*
X359769Y282982D01*
X359732Y282958D01*
X358900Y283124D01*
X358049Y282955D01*
X357328Y282472D01*
X356845Y281751D01*
X356676Y280900D01*
X356845Y280049D01*
X357328Y279328D01*
X358049Y278845D01*
X358726Y278711D01*
Y126045D01*
X358264Y125905D01*
X357874Y126203D01*
Y134400D01*
X357778Y134888D01*
X357501Y135301D01*
X351775Y141028D01*
Y145505D01*
X352274Y145657D01*
X352428Y145428D01*
X353149Y144946D01*
X354000Y144776D01*
X354851Y144946D01*
X355573Y145428D01*
X356055Y146149D01*
X356224Y147000D01*
X356055Y147851D01*
X355573Y148573D01*
X355275Y148772D01*
Y274595D01*
X355772Y274927D01*
X356255Y275649D01*
X356424Y276500D01*
X356255Y277351D01*
X355772Y278073D01*
X355051Y278555D01*
X354200Y278724D01*
X353349Y278555D01*
X352627Y278073D01*
X352274Y277544D01*
X351775Y277696D01*
Y280000D01*
X351677Y280488D01*
X351401Y280901D01*
X347401Y284901D01*
X347215Y285026D01*
X347367Y285525D01*
X357872D01*
X360027Y283371D01*
D02*
G37*
G36*
X276477Y156637D02*
X276428Y156604D01*
X275945Y155882D01*
X275776Y155031D01*
X275945Y154180D01*
X276428Y153459D01*
X277149Y152977D01*
X277228Y152961D01*
X277450Y152407D01*
X277145Y151951D01*
X276976Y151100D01*
X277145Y150249D01*
X277274Y150056D01*
X277039Y149615D01*
X275985D01*
X275786Y149913D01*
X275065Y150395D01*
X274214Y150565D01*
X273363Y150395D01*
X272641Y149913D01*
X272159Y149192D01*
X271990Y148341D01*
X272159Y147490D01*
X272641Y146768D01*
X273363Y146286D01*
X274214Y146117D01*
X275065Y146286D01*
X275786Y146768D01*
X275985Y147066D01*
X331631D01*
X343746Y134951D01*
X343676Y134600D01*
X343746Y134248D01*
X342338Y132840D01*
X337906D01*
X337707Y133138D01*
X336985Y133620D01*
X336134Y133789D01*
X335283Y133620D01*
X334562Y133138D01*
X334080Y132417D01*
X333911Y131566D01*
X334080Y130715D01*
X334562Y129993D01*
X335283Y129511D01*
X336134Y129342D01*
X336985Y129511D01*
X337707Y129993D01*
X337906Y130291D01*
X342866D01*
X343353Y130388D01*
X343767Y130664D01*
X345549Y132446D01*
X345900Y132376D01*
X346751Y132545D01*
X347473Y133028D01*
X347955Y133749D01*
X348124Y134600D01*
X347955Y135451D01*
X347784Y135707D01*
X348172Y136026D01*
X349744Y134454D01*
X349581Y133636D01*
X349750Y132785D01*
X350232Y132063D01*
X350954Y131581D01*
X351805Y131412D01*
X352525Y131555D01*
X353026Y131273D01*
Y126859D01*
X344641Y118474D01*
X322472D01*
X322272Y118772D01*
X321551Y119255D01*
X320700Y119424D01*
X319849Y119255D01*
X319127Y118772D01*
X318645Y118051D01*
X318476Y117200D01*
X318581Y116674D01*
X318207Y116174D01*
X317728D01*
X315374Y118528D01*
Y141000D01*
X315278Y141488D01*
X315001Y141901D01*
X313501Y143401D01*
X313088Y143677D01*
X312600Y143774D01*
X274528D01*
X270775Y147528D01*
Y152690D01*
X275048Y156964D01*
X275400Y156894D01*
X276251Y157063D01*
X276477Y156637D01*
D02*
G37*
G36*
X647725Y236472D02*
Y229730D01*
X647264Y229539D01*
X642654Y234149D01*
X642724Y234500D01*
X642555Y235351D01*
X642072Y236072D01*
X641351Y236555D01*
X640500Y236724D01*
X639649Y236555D01*
X638928Y236072D01*
X638445Y235351D01*
X638276Y234500D01*
X638341Y234175D01*
X637911Y233774D01*
X637272D01*
X637073Y234072D01*
X636351Y234555D01*
X635500Y234724D01*
X634649Y234555D01*
X633927Y234072D01*
X633445Y233351D01*
X633276Y232500D01*
X633445Y231649D01*
X633927Y230927D01*
X634649Y230445D01*
X635500Y230276D01*
X636351Y230445D01*
X637073Y230927D01*
X637148Y231041D01*
X637714Y231083D01*
X641128Y227669D01*
X640889Y227202D01*
X640149Y227055D01*
X639428Y226572D01*
X638945Y225851D01*
X638776Y225000D01*
X638846Y224648D01*
X628738Y214540D01*
X628119Y214629D01*
X627822Y215072D01*
X627582Y215233D01*
X627533Y215731D01*
X631901Y220099D01*
X632177Y220512D01*
X632274Y221000D01*
Y240162D01*
X632774Y240429D01*
X633049Y240245D01*
X633900Y240076D01*
X634751Y240245D01*
X635472Y240727D01*
X635672Y241025D01*
X643172D01*
X647725Y236472D01*
D02*
G37*
G36*
X581726Y273972D02*
Y152860D01*
X581225Y152579D01*
X580500Y152724D01*
X580149Y152654D01*
X579401Y153401D01*
X578988Y153677D01*
X578500Y153774D01*
X572000D01*
X571512Y153677D01*
X571099Y153401D01*
X569851Y152154D01*
X569500Y152224D01*
X568649Y152055D01*
X568274Y151804D01*
X567774Y152072D01*
Y156088D01*
X568220Y156177D01*
X568941Y156659D01*
X569423Y157380D01*
X569593Y158231D01*
X569423Y159082D01*
X568941Y159804D01*
X568220Y160286D01*
X567369Y160455D01*
X566518Y160286D01*
X565796Y159804D01*
X565314Y159082D01*
X565145Y158231D01*
X565307Y157417D01*
X565226Y157007D01*
Y149572D01*
X564725Y149304D01*
X564351Y149555D01*
X563500Y149724D01*
X562649Y149555D01*
X561928Y149073D01*
X561445Y148351D01*
X561276Y147500D01*
X561445Y146649D01*
X561928Y145928D01*
X562225Y145728D01*
Y132272D01*
X561928Y132072D01*
X561611Y131599D01*
X561004Y131499D01*
X559274Y133228D01*
Y199539D01*
X559723Y199760D01*
X559747Y199742D01*
X560720Y199339D01*
X561764Y199202D01*
X562808Y199339D01*
X563781Y199742D01*
X564617Y200383D01*
X565258Y201219D01*
X565661Y202192D01*
X565798Y203236D01*
X565661Y204280D01*
X565258Y205254D01*
X564617Y206089D01*
X563781Y206730D01*
X562808Y207133D01*
X561764Y207271D01*
X560720Y207133D01*
X559747Y206730D01*
X559723Y206712D01*
X559274Y206933D01*
Y218772D01*
X563165Y222662D01*
X563692Y222483D01*
X563772Y221877D01*
X564175Y220904D01*
X564816Y220068D01*
X565652Y219427D01*
X566625Y219024D01*
X567669Y218887D01*
X568713Y219024D01*
X569687Y219427D01*
X570522Y220068D01*
X571163Y220904D01*
X571566Y221877D01*
X571704Y222921D01*
X571566Y223965D01*
X571163Y224939D01*
X570522Y225774D01*
X569687Y226415D01*
X568713Y226818D01*
X568108Y226898D01*
X567928Y227426D01*
X568901Y228399D01*
X569177Y228812D01*
X569275Y229300D01*
Y263228D01*
X569572Y263427D01*
X570055Y264149D01*
X570224Y265000D01*
X570055Y265851D01*
X569572Y266572D01*
X568851Y267055D01*
X568000Y267224D01*
X567149Y267055D01*
X566474Y266604D01*
X565975Y266726D01*
Y271891D01*
X566751Y272045D01*
X567473Y272528D01*
X567955Y273249D01*
X568124Y274100D01*
X567955Y274951D01*
X567473Y275673D01*
X566751Y276155D01*
X565900Y276324D01*
X565049Y276155D01*
X564327Y275673D01*
X563845Y274951D01*
X563676Y274100D01*
X563735Y273805D01*
X563522Y273488D01*
X563425Y273000D01*
Y248428D01*
X556446Y241448D01*
X555782Y241491D01*
X555758Y241522D01*
X554923Y242163D01*
X553950Y242566D01*
X552906Y242704D01*
X551861Y242566D01*
X550888Y242163D01*
X550053Y241522D01*
X549412Y240686D01*
X549009Y239713D01*
X548871Y238669D01*
X549009Y237625D01*
X549412Y236652D01*
X550053Y235816D01*
X550888Y235175D01*
X551861Y234772D01*
X552906Y234635D01*
X553950Y234772D01*
X554923Y235175D01*
X555277Y235447D01*
X555725Y235226D01*
Y200774D01*
X555277Y200553D01*
X554923Y200825D01*
X553950Y201228D01*
X552906Y201365D01*
X551861Y201228D01*
X550888Y200825D01*
X550053Y200184D01*
X549412Y199348D01*
X549009Y198375D01*
X548871Y197331D01*
X549009Y196287D01*
X549412Y195314D01*
X550053Y194478D01*
X550888Y193837D01*
X551861Y193434D01*
X552906Y193296D01*
X553950Y193434D01*
X554923Y193837D01*
X555277Y194109D01*
X555725Y193887D01*
Y130900D01*
X555823Y130412D01*
X556099Y129999D01*
X556646Y129452D01*
X556576Y129100D01*
X556745Y128249D01*
X557228Y127527D01*
X557949Y127046D01*
X558800Y126876D01*
X559651Y127046D01*
X560372Y127527D01*
X560553Y127798D01*
X561051Y127847D01*
X564546Y124352D01*
X564476Y124000D01*
X564645Y123149D01*
X565128Y122427D01*
X565849Y121946D01*
X566700Y121776D01*
X567551Y121946D01*
X568272Y122427D01*
X568589Y122901D01*
X569196Y123001D01*
X570099Y122099D01*
X570512Y121823D01*
X571000Y121725D01*
X585000D01*
X585488Y121823D01*
X585901Y122099D01*
X587149Y123346D01*
X587500Y123276D01*
X588351Y123445D01*
X589073Y123927D01*
X589555Y124649D01*
X589724Y125500D01*
X589555Y126351D01*
X589073Y127073D01*
X588395Y127525D01*
X588649Y127945D01*
X589500Y127776D01*
X589852Y127846D01*
X593599Y124099D01*
X594012Y123822D01*
X594500Y123725D01*
X604728D01*
X604927Y123427D01*
X605649Y122945D01*
X606500Y122776D01*
X607351Y122945D01*
X607652Y123146D01*
X608152Y122879D01*
Y113315D01*
X601866Y107029D01*
X535846D01*
X535654Y107491D01*
X539581Y111419D01*
X539913Y111915D01*
X540029Y112500D01*
Y115399D01*
X540072Y115427D01*
X540555Y116149D01*
X540724Y117000D01*
X540555Y117851D01*
X540072Y118572D01*
X539351Y119054D01*
X538500Y119224D01*
X537649Y119054D01*
X536928Y118572D01*
X536445Y117851D01*
X536276Y117000D01*
X536445Y116149D01*
X536928Y115427D01*
X536971Y115399D01*
Y113134D01*
X530866Y107029D01*
X480530D01*
X480130Y107529D01*
X480224Y108000D01*
X480055Y108851D01*
X479572Y109573D01*
X479275Y109772D01*
Y119900D01*
X479178Y120388D01*
X478901Y120801D01*
X458901Y140801D01*
X458488Y141077D01*
X458000Y141174D01*
X449145D01*
X448878Y141674D01*
X448912Y141726D01*
X501270D01*
X501461Y141264D01*
X490913Y130715D01*
X490636Y130301D01*
X490539Y129814D01*
Y125872D01*
X490241Y125672D01*
X489759Y124951D01*
X489590Y124100D01*
X489759Y123249D01*
X490241Y122528D01*
X490963Y122046D01*
X491814Y121876D01*
X492665Y122046D01*
X493386Y122528D01*
X493868Y123249D01*
X494038Y124100D01*
X493868Y124951D01*
X493386Y125672D01*
X493088Y125872D01*
Y129286D01*
X505264Y141461D01*
X505725Y141270D01*
Y133272D01*
X505428Y133072D01*
X504945Y132351D01*
X504776Y131500D01*
X504945Y130649D01*
X505428Y129928D01*
X506149Y129446D01*
X507000Y129276D01*
X507851Y129446D01*
X508572Y129928D01*
X509055Y130649D01*
X509224Y131500D01*
X509055Y132351D01*
X508572Y133072D01*
X508275Y133272D01*
Y141472D01*
X513148Y146346D01*
X513500Y146276D01*
X514351Y146446D01*
X515072Y146927D01*
X515555Y147649D01*
X515724Y148500D01*
X515555Y149351D01*
X515072Y150073D01*
X514682Y150333D01*
X514633Y150831D01*
X518201Y154399D01*
X518477Y154812D01*
X518574Y155300D01*
Y224572D01*
X519237Y225234D01*
X519599Y224901D01*
X519322Y224488D01*
X519226Y224000D01*
Y137528D01*
X516852Y135154D01*
X516500Y135224D01*
X515649Y135055D01*
X514927Y134573D01*
X514445Y133851D01*
X514276Y133000D01*
X514445Y132149D01*
X514927Y131428D01*
X515649Y130946D01*
X516500Y130776D01*
X517351Y130946D01*
X518073Y131428D01*
X518555Y132149D01*
X518724Y133000D01*
X518654Y133352D01*
X521401Y136099D01*
X521677Y136512D01*
X521774Y137000D01*
Y223069D01*
X521815Y223094D01*
X522033Y223016D01*
X522310Y222814D01*
X522434Y221877D01*
X522837Y220904D01*
X523478Y220068D01*
X524313Y219427D01*
X525287Y219024D01*
X526331Y218887D01*
X527375Y219024D01*
X528348Y219427D01*
X529184Y220068D01*
X529825Y220904D01*
X530228Y221877D01*
X530365Y222921D01*
X530228Y223965D01*
X530168Y224110D01*
X530446Y224525D01*
X532000D01*
X532488Y224623D01*
X532901Y224899D01*
X534001Y225999D01*
X534228Y226338D01*
X534546Y226318D01*
X534727Y226254D01*
Y206055D01*
X534254Y205895D01*
X534105Y206089D01*
X533269Y206730D01*
X532296Y207133D01*
X531252Y207271D01*
X530208Y207133D01*
X529235Y206730D01*
X528399Y206089D01*
X527758Y205254D01*
X527355Y204280D01*
X527217Y203236D01*
X527355Y202192D01*
X527758Y201219D01*
X528399Y200383D01*
X529235Y199742D01*
X530208Y199339D01*
X531252Y199202D01*
X532296Y199339D01*
X533269Y199742D01*
X534105Y200383D01*
X534254Y200578D01*
X534727Y200417D01*
Y199730D01*
X526468Y191470D01*
X526191Y191057D01*
X526094Y190569D01*
Y134184D01*
X525927Y134072D01*
X525445Y133351D01*
X525276Y132500D01*
X525445Y131649D01*
X525927Y130928D01*
X526649Y130446D01*
X527500Y130276D01*
X528351Y130446D01*
X529073Y130928D01*
X529555Y131649D01*
X529724Y132500D01*
X529555Y133351D01*
X529073Y134072D01*
X528643Y134359D01*
Y190041D01*
X536650Y198047D01*
X537123Y197814D01*
X537060Y197331D01*
X537197Y196287D01*
X537600Y195314D01*
X538242Y194478D01*
X539077Y193837D01*
X540050Y193434D01*
X541094Y193296D01*
X542139Y193434D01*
X543112Y193837D01*
X543947Y194478D01*
X544588Y195314D01*
X544991Y196287D01*
X545129Y197331D01*
X544991Y198375D01*
X544588Y199348D01*
X543947Y200184D01*
X543112Y200825D01*
X542139Y201228D01*
X541094Y201365D01*
X540050Y201228D01*
X539077Y200825D01*
X538242Y200184D01*
X537777Y199577D01*
X537277Y199747D01*
Y236253D01*
X537777Y236422D01*
X538242Y235816D01*
X539077Y235175D01*
X540050Y234772D01*
X541094Y234635D01*
X542139Y234772D01*
X543112Y235175D01*
X543947Y235816D01*
X544588Y236652D01*
X544991Y237625D01*
X545129Y238669D01*
X544991Y239713D01*
X544588Y240686D01*
X543947Y241522D01*
X543112Y242163D01*
X542139Y242566D01*
X541094Y242704D01*
X540050Y242566D01*
X539077Y242163D01*
X538242Y241522D01*
X537777Y240916D01*
X537277Y241086D01*
Y248698D01*
X537180Y249186D01*
X536903Y249599D01*
X521054Y265448D01*
X521124Y265800D01*
X520955Y266651D01*
X520472Y267372D01*
X519751Y267855D01*
X518900Y268024D01*
X518049Y267855D01*
X517327Y267372D01*
X516845Y266651D01*
X516676Y265800D01*
X516845Y264949D01*
X517327Y264228D01*
X518049Y263745D01*
X518900Y263576D01*
X519251Y263646D01*
X534727Y248170D01*
Y237628D01*
X534266Y237437D01*
X521774Y249928D01*
Y254728D01*
X522073Y254927D01*
X522555Y255649D01*
X522724Y256500D01*
X522555Y257351D01*
X522073Y258072D01*
X521351Y258555D01*
X520500Y258724D01*
X519649Y258555D01*
X518927Y258072D01*
X518445Y257351D01*
X518276Y256500D01*
X518445Y255649D01*
X518927Y254927D01*
X519226Y254728D01*
Y249400D01*
X519322Y248912D01*
X519599Y248499D01*
X530848Y237249D01*
X530669Y236722D01*
X530208Y236661D01*
X529235Y236258D01*
X528399Y235617D01*
X527758Y234781D01*
X527355Y233808D01*
X527217Y232764D01*
X527355Y231720D01*
X527758Y230747D01*
X528399Y229911D01*
X528838Y229574D01*
X528668Y229075D01*
X520000D01*
X519512Y228977D01*
X519099Y228701D01*
X516399Y226001D01*
X516122Y225588D01*
X516025Y225100D01*
Y155828D01*
X510768Y150570D01*
X510306Y150761D01*
Y157520D01*
X510692Y157837D01*
X511000Y157776D01*
X511851Y157946D01*
X512572Y158428D01*
X513055Y159149D01*
X513224Y160000D01*
X513055Y160851D01*
X512572Y161573D01*
X512275Y161772D01*
Y270672D01*
X514949Y273346D01*
X515300Y273276D01*
X516151Y273445D01*
X516873Y273927D01*
X517355Y274649D01*
X517524Y275500D01*
X517355Y276351D01*
X516873Y277073D01*
X516151Y277555D01*
X515300Y277724D01*
X514449Y277555D01*
X513728Y277073D01*
X513245Y276351D01*
X513076Y275500D01*
X513146Y275149D01*
X510099Y272101D01*
X509823Y271688D01*
X509726Y271200D01*
Y233030D01*
X509264Y232839D01*
X471454Y270649D01*
X471524Y271000D01*
X471355Y271851D01*
X470872Y272572D01*
X470330Y272935D01*
X470185Y273457D01*
X470193Y273556D01*
X470327Y273726D01*
X494728D01*
X494928Y273428D01*
X495649Y272945D01*
X496500Y272776D01*
X497351Y272945D01*
X498072Y273428D01*
X498555Y274149D01*
X498724Y275000D01*
X498555Y275851D01*
X498072Y276572D01*
X497351Y277055D01*
X496500Y277224D01*
X495649Y277055D01*
X494928Y276572D01*
X494728Y276274D01*
X485572D01*
X485304Y276775D01*
X485555Y277149D01*
X485724Y278000D01*
X485555Y278851D01*
X485073Y279573D01*
X484351Y280055D01*
X483500Y280224D01*
X482649Y280055D01*
X481927Y279573D01*
X481728Y279275D01*
X468500D01*
X468012Y279177D01*
X467599Y278901D01*
X409336Y220639D01*
X408875Y220830D01*
Y274372D01*
X412128Y277625D01*
X431220D01*
X431372Y277126D01*
X430928Y276828D01*
X430445Y276107D01*
X430276Y275256D01*
X430445Y274405D01*
X430928Y273683D01*
X431225Y273484D01*
Y269000D01*
X431322Y268512D01*
X431599Y268099D01*
X437599Y262099D01*
X438012Y261823D01*
X438500Y261725D01*
X448000D01*
X448488Y261823D01*
X448901Y262099D01*
X468528Y281726D01*
X573972D01*
X581726Y273972D01*
D02*
G37*
G36*
X467217Y270291D02*
X467245Y270149D01*
X467728Y269427D01*
X468449Y268945D01*
X469300Y268776D01*
X469652Y268846D01*
X507757Y230741D01*
Y185981D01*
X507257Y185829D01*
X507217Y185889D01*
X478705Y214401D01*
X478291Y214678D01*
X477803Y214774D01*
X477272D01*
X477072Y215072D01*
X476351Y215555D01*
X475500Y215724D01*
X474649Y215555D01*
X473927Y215072D01*
X473445Y214351D01*
X473276Y213500D01*
X473445Y212649D01*
X473927Y211928D01*
X474649Y211445D01*
X475500Y211276D01*
X476351Y211445D01*
X477072Y211928D01*
X477634Y211867D01*
X481893Y207608D01*
X481844Y207466D01*
X481678Y207116D01*
X480747Y206730D01*
X479911Y206089D01*
X479270Y205254D01*
X478867Y204280D01*
X478729Y203236D01*
X478867Y202192D01*
X479270Y201219D01*
X479911Y200383D01*
X480747Y199742D01*
X481720Y199339D01*
X482764Y199202D01*
X483808Y199339D01*
X484781Y199742D01*
X485617Y200383D01*
X486258Y201219D01*
X486644Y202150D01*
X486993Y202317D01*
X487136Y202365D01*
X505041Y184460D01*
Y162646D01*
X504579Y162454D01*
X498632Y168401D01*
X498219Y168677D01*
X497731Y168774D01*
X444028D01*
X437775Y175028D01*
Y226828D01*
X438072Y227028D01*
X438555Y227749D01*
X438724Y228600D01*
X438555Y229451D01*
X438072Y230172D01*
X437351Y230655D01*
X436500Y230824D01*
X435649Y230655D01*
X434928Y230172D01*
X434445Y229451D01*
X434276Y228600D01*
X434445Y227749D01*
X434928Y227028D01*
X435225Y226828D01*
Y174500D01*
X435323Y174012D01*
X435599Y173599D01*
X442599Y166599D01*
X443012Y166323D01*
X443254Y166274D01*
X443204Y165775D01*
X434028D01*
X423275Y176528D01*
Y220828D01*
X423572Y221027D01*
X424055Y221749D01*
X424224Y222600D01*
X424055Y223451D01*
X423572Y224172D01*
X422851Y224655D01*
X422000Y224824D01*
X421792Y224782D01*
X421546Y225243D01*
X466739Y270436D01*
X467217Y270291D01*
D02*
G37*
G36*
X419818Y222808D02*
X419776Y222600D01*
X419945Y221749D01*
X420428Y221027D01*
X420725Y220828D01*
Y176000D01*
X420822Y175512D01*
X421099Y175099D01*
X432599Y163599D01*
X433012Y163322D01*
X433500Y163225D01*
X497472D01*
X500546Y160152D01*
X500476Y159800D01*
X500645Y158949D01*
X501127Y158228D01*
X501849Y157746D01*
X502700Y157576D01*
X502898Y157615D01*
X503093Y157144D01*
X502812Y156957D01*
X502330Y156236D01*
X502161Y155385D01*
X502330Y154534D01*
X502812Y153812D01*
X503534Y153330D01*
X504385Y153161D01*
X504655Y153214D01*
X505041Y152897D01*
Y152083D01*
X504599Y151704D01*
X504500Y151724D01*
X503649Y151555D01*
X502927Y151073D01*
X502445Y150351D01*
X502276Y149500D01*
X502320Y149281D01*
X501849Y149086D01*
X501635Y149406D01*
X500913Y149888D01*
X500062Y150057D01*
X499711Y149987D01*
X497389Y152310D01*
X496975Y152586D01*
X496488Y152683D01*
X435272D01*
X435073Y152981D01*
X434351Y153463D01*
X433500Y153632D01*
X433038Y153540D01*
X432618Y153967D01*
X432724Y154500D01*
X432555Y155351D01*
X432072Y156072D01*
X431351Y156554D01*
X430500Y156724D01*
X429649Y156554D01*
X428928Y156072D01*
X428445Y155351D01*
X428276Y154500D01*
X428445Y153649D01*
X428928Y152927D01*
X429225Y152728D01*
Y146284D01*
X428783Y146101D01*
X428406Y146410D01*
Y150369D01*
X428309Y150857D01*
X428032Y151270D01*
X425901Y153401D01*
X425488Y153677D01*
X425000Y153774D01*
X421528D01*
X418397Y156905D01*
X418542Y157384D01*
X418851Y157446D01*
X419572Y157928D01*
X419772Y158226D01*
X493472D01*
X493846Y157852D01*
X493776Y157500D01*
X493945Y156649D01*
X494427Y155928D01*
X495149Y155445D01*
X496000Y155276D01*
X496851Y155445D01*
X497573Y155928D01*
X498055Y156649D01*
X498224Y157500D01*
X498055Y158351D01*
X497573Y159072D01*
X496851Y159555D01*
X496000Y159724D01*
X495648Y159654D01*
X494901Y160401D01*
X494488Y160678D01*
X494000Y160775D01*
X419772D01*
X419572Y161073D01*
X418851Y161555D01*
X418000Y161724D01*
X417149Y161555D01*
X416428Y161073D01*
X415945Y160351D01*
X415884Y160042D01*
X415406Y159897D01*
X414775Y160528D01*
Y218472D01*
X419357Y223054D01*
X419818Y222808D01*
D02*
G37*
G36*
X497908Y148185D02*
X497839Y147834D01*
X498008Y146983D01*
X498490Y146261D01*
X499211Y145779D01*
X500062Y145610D01*
X500913Y145779D01*
X501635Y146261D01*
X502117Y146983D01*
X502286Y147834D01*
X502243Y148052D01*
X502714Y148248D01*
X502927Y147927D01*
X503649Y147445D01*
X503958Y147384D01*
X504103Y146906D01*
X501472Y144274D01*
X447969D01*
X447481Y144177D01*
X447068Y143901D01*
X437599Y134432D01*
X437323Y134019D01*
X437275Y133777D01*
X436774Y133826D01*
Y140600D01*
X436678Y141088D01*
X436401Y141501D01*
X431775Y146128D01*
Y149337D01*
X432274Y149604D01*
X432649Y149354D01*
X433500Y149185D01*
X434351Y149354D01*
X435073Y149836D01*
X435272Y150134D01*
X495960D01*
X497908Y148185D01*
D02*
G37*
G36*
X624226Y208966D02*
Y117039D01*
X623726Y116891D01*
X622993Y117453D01*
X622032Y117851D01*
X621000Y117987D01*
X619968Y117851D01*
X619249Y117553D01*
X616274Y120528D01*
Y132640D01*
X616775Y132921D01*
X617500Y132776D01*
X618351Y132946D01*
X619072Y133428D01*
X619555Y134149D01*
X619724Y135000D01*
X619555Y135851D01*
X619072Y136573D01*
X618775Y136772D01*
Y204222D01*
X623726Y209173D01*
X624226Y208966D01*
D02*
G37*
G36*
X476725Y119372D02*
Y109772D01*
X476428Y109573D01*
X475945Y108851D01*
X475776Y108000D01*
X475870Y107529D01*
X475470Y107029D01*
X457029D01*
Y133899D01*
X457072Y133928D01*
X457555Y134649D01*
X457724Y135500D01*
X457555Y136351D01*
X457072Y137073D01*
X456351Y137555D01*
X455500Y137724D01*
X454649Y137555D01*
X453928Y137073D01*
X453445Y136351D01*
X453276Y135500D01*
X453445Y134649D01*
X453928Y133928D01*
X453971Y133899D01*
Y107029D01*
X434485D01*
X434294Y107491D01*
X436401Y109599D01*
X436678Y110012D01*
X436774Y110500D01*
Y124428D01*
X437275Y124696D01*
X437649Y124445D01*
X438500Y124276D01*
X439351Y124445D01*
X440072Y124927D01*
X440555Y125649D01*
X440724Y126500D01*
X440555Y127351D01*
X440072Y128073D01*
X439775Y128272D01*
Y132505D01*
X440274Y132657D01*
X440427Y132428D01*
X441149Y131946D01*
X442000Y131776D01*
X442851Y131946D01*
X443573Y132428D01*
X444055Y133149D01*
X444224Y134000D01*
X444154Y134352D01*
X448428Y138626D01*
X457472D01*
X476725Y119372D01*
D02*
G37*
%LPC*%
G36*
X567669Y216129D02*
X566625Y215991D01*
X565652Y215588D01*
X564816Y214947D01*
X564175Y214112D01*
X563772Y213139D01*
X563635Y212094D01*
X563772Y211050D01*
X564175Y210077D01*
X564816Y209242D01*
X565652Y208600D01*
X566625Y208197D01*
X567669Y208060D01*
X568713Y208197D01*
X569687Y208600D01*
X570522Y209242D01*
X571163Y210077D01*
X571566Y211050D01*
X571704Y212094D01*
X571566Y213139D01*
X571163Y214112D01*
X570522Y214947D01*
X569687Y215588D01*
X568713Y215991D01*
X567669Y216129D01*
D02*
G37*
G36*
X526331D02*
X525287Y215991D01*
X524313Y215588D01*
X523478Y214947D01*
X522837Y214112D01*
X522434Y213139D01*
X522296Y212094D01*
X522434Y211050D01*
X522837Y210077D01*
X523478Y209242D01*
X524313Y208600D01*
X525287Y208197D01*
X526331Y208060D01*
X527375Y208197D01*
X528348Y208600D01*
X529184Y209242D01*
X529825Y210077D01*
X530228Y211050D01*
X530365Y212094D01*
X530228Y213139D01*
X529825Y214112D01*
X529184Y214947D01*
X528348Y215588D01*
X527375Y215991D01*
X526331Y216129D01*
D02*
G37*
G36*
X550250Y216750D02*
X543750D01*
Y209250D01*
X544657D01*
X544925Y208750D01*
X544776Y208000D01*
X544945Y207149D01*
X545428Y206428D01*
X546149Y205945D01*
X547000Y205776D01*
X547851Y205945D01*
X548572Y206428D01*
X549055Y207149D01*
X549224Y208000D01*
X549121Y208518D01*
X549852Y209250D01*
X550250D01*
Y209648D01*
X550401Y209799D01*
X550677Y210212D01*
X550774Y210700D01*
Y213000D01*
X550677Y213488D01*
X550401Y213901D01*
X550250Y214002D01*
Y216750D01*
D02*
G37*
G36*
X546500Y171324D02*
X545649Y171154D01*
X544928Y170673D01*
X544445Y169951D01*
X544276Y169100D01*
X544445Y168249D01*
X544928Y167527D01*
X545225Y167328D01*
Y151495D01*
X544726Y151344D01*
X544572Y151573D01*
X543851Y152055D01*
X543000Y152224D01*
X542649Y152154D01*
X538901Y155901D01*
X538488Y156177D01*
X538000Y156274D01*
X533772D01*
X533572Y156572D01*
X532851Y157054D01*
X532000Y157224D01*
X531149Y157054D01*
X530428Y156572D01*
X529945Y155851D01*
X529776Y155000D01*
X529945Y154149D01*
X530428Y153428D01*
X531149Y152945D01*
X532000Y152776D01*
X532851Y152945D01*
X533572Y153428D01*
X533772Y153726D01*
X537472D01*
X540846Y150352D01*
X540776Y150000D01*
X540945Y149149D01*
X541428Y148427D01*
X542149Y147945D01*
X543000Y147776D01*
X543851Y147945D01*
X544572Y148427D01*
X544726Y148656D01*
X545225Y148505D01*
Y135384D01*
X545025Y135241D01*
X544744Y135159D01*
X537775Y142128D01*
Y146728D01*
X538072Y146927D01*
X538555Y147649D01*
X538724Y148500D01*
X538555Y149351D01*
X538072Y150073D01*
X537351Y150555D01*
X536500Y150724D01*
X535649Y150555D01*
X534928Y150073D01*
X534445Y149351D01*
X534276Y148500D01*
X534445Y147649D01*
X534928Y146927D01*
X535225Y146728D01*
Y141600D01*
X535323Y141112D01*
X535599Y140699D01*
X545128Y131169D01*
X544889Y130702D01*
X544149Y130554D01*
X543428Y130072D01*
X543228Y129774D01*
X541000D01*
X540512Y129677D01*
X540099Y129401D01*
X538472Y127775D01*
X514272D01*
X514073Y128073D01*
X513351Y128554D01*
X512500Y128724D01*
X511649Y128554D01*
X510927Y128073D01*
X510445Y127351D01*
X510276Y126500D01*
X510445Y125649D01*
X510927Y124927D01*
X511649Y124445D01*
X512500Y124276D01*
X513351Y124445D01*
X514073Y124927D01*
X514272Y125225D01*
X539000D01*
X539488Y125322D01*
X539901Y125599D01*
X541528Y127225D01*
X543228D01*
X543428Y126927D01*
X544149Y126445D01*
X545000Y126276D01*
X545851Y126445D01*
X546572Y126927D01*
X547055Y127649D01*
X547202Y128389D01*
X547669Y128628D01*
X564946Y111352D01*
X564876Y111000D01*
X565045Y110149D01*
X565527Y109427D01*
X566249Y108946D01*
X567100Y108776D01*
X567951Y108946D01*
X568673Y109427D01*
X569155Y110149D01*
X569324Y111000D01*
X569155Y111851D01*
X568673Y112573D01*
X567951Y113055D01*
X567100Y113224D01*
X566749Y113154D01*
X562059Y117844D01*
X562141Y118125D01*
X562284Y118325D01*
X570372D01*
X576846Y111852D01*
X576776Y111500D01*
X576945Y110649D01*
X577427Y109927D01*
X578149Y109446D01*
X579000Y109276D01*
X579851Y109446D01*
X580573Y109927D01*
X581055Y110649D01*
X581224Y111500D01*
X581055Y112351D01*
X580573Y113073D01*
X579851Y113555D01*
X579000Y113724D01*
X578649Y113654D01*
X571801Y120501D01*
X571388Y120777D01*
X570900Y120875D01*
X562728D01*
X547775Y135828D01*
Y167328D01*
X548072Y167527D01*
X548555Y168249D01*
X548724Y169100D01*
X548555Y169951D01*
X548072Y170673D01*
X547351Y171154D01*
X546500Y171324D01*
D02*
G37*
G36*
X498000Y129724D02*
X497149Y129554D01*
X496427Y129072D01*
X495945Y128351D01*
X495776Y127500D01*
X495945Y126649D01*
X496427Y125927D01*
X497149Y125445D01*
X498000Y125276D01*
X498351Y125346D01*
X502099Y121599D01*
X502512Y121323D01*
X503000Y121226D01*
X543228D01*
X543428Y120928D01*
X544149Y120446D01*
X545000Y120276D01*
X545851Y120446D01*
X546572Y120928D01*
X547055Y121649D01*
X547224Y122500D01*
X547055Y123351D01*
X546572Y124073D01*
X545851Y124555D01*
X545000Y124724D01*
X544149Y124555D01*
X543428Y124073D01*
X543228Y123775D01*
X503528D01*
X500154Y127148D01*
X500224Y127500D01*
X500055Y128351D01*
X499573Y129072D01*
X498851Y129554D01*
X498000Y129724D01*
D02*
G37*
G36*
X473906Y242704D02*
X472861Y242566D01*
X471888Y242163D01*
X471053Y241522D01*
X470412Y240686D01*
X470009Y239713D01*
X469871Y238669D01*
X470009Y237625D01*
X470412Y236652D01*
X471053Y235816D01*
X471888Y235175D01*
X472861Y234772D01*
X473906Y234635D01*
X474950Y234772D01*
X475923Y235175D01*
X476758Y235816D01*
X477400Y236652D01*
X477803Y237625D01*
X477940Y238669D01*
X477803Y239713D01*
X477400Y240686D01*
X476758Y241522D01*
X475923Y242163D01*
X474950Y242566D01*
X473906Y242704D01*
D02*
G37*
G36*
X462094D02*
X461050Y242566D01*
X460077Y242163D01*
X459242Y241522D01*
X458600Y240686D01*
X458197Y239713D01*
X458060Y238669D01*
X458197Y237625D01*
X458600Y236652D01*
X459242Y235816D01*
X460077Y235175D01*
X461050Y234772D01*
X462094Y234635D01*
X463139Y234772D01*
X464112Y235175D01*
X464947Y235816D01*
X465588Y236652D01*
X465991Y237625D01*
X466129Y238669D01*
X465991Y239713D01*
X465588Y240686D01*
X464947Y241522D01*
X464112Y242163D01*
X463139Y242566D01*
X462094Y242704D01*
D02*
G37*
G36*
X483748Y236798D02*
X482704Y236661D01*
X481731Y236258D01*
X480895Y235617D01*
X480254Y234781D01*
X479851Y233808D01*
X479713Y232764D01*
X479851Y231720D01*
X480254Y230747D01*
X480895Y229911D01*
X481731Y229270D01*
X482704Y228867D01*
X483748Y228729D01*
X484792Y228867D01*
X485765Y229270D01*
X486601Y229911D01*
X487242Y230747D01*
X487645Y231720D01*
X487782Y232764D01*
X487645Y233808D01*
X487242Y234781D01*
X486601Y235617D01*
X485765Y236258D01*
X484792Y236661D01*
X483748Y236798D01*
D02*
G37*
G36*
X452252D02*
X451208Y236661D01*
X450235Y236258D01*
X449399Y235617D01*
X448758Y234781D01*
X448355Y233808D01*
X448217Y232764D01*
X448355Y231720D01*
X448758Y230747D01*
X449399Y229911D01*
X450235Y229270D01*
X451208Y228867D01*
X452252Y228729D01*
X453296Y228867D01*
X454269Y229270D01*
X455105Y229911D01*
X455746Y230747D01*
X456149Y231720D01*
X456286Y232764D01*
X456149Y233808D01*
X455746Y234781D01*
X455105Y235617D01*
X454269Y236258D01*
X453296Y236661D01*
X452252Y236798D01*
D02*
G37*
G36*
X488669Y226956D02*
X487625Y226818D01*
X486652Y226415D01*
X485816Y225774D01*
X485175Y224939D01*
X484772Y223965D01*
X484635Y222921D01*
X484772Y221877D01*
X485175Y220904D01*
X485816Y220068D01*
X486652Y219427D01*
X487625Y219024D01*
X488669Y218887D01*
X489713Y219024D01*
X490687Y219427D01*
X491522Y220068D01*
X492163Y220904D01*
X492566Y221877D01*
X492704Y222921D01*
X492566Y223965D01*
X492163Y224939D01*
X491522Y225774D01*
X490687Y226415D01*
X489713Y226818D01*
X488669Y226956D01*
D02*
G37*
G36*
X447331D02*
X446287Y226818D01*
X445314Y226415D01*
X444478Y225774D01*
X443837Y224939D01*
X443434Y223965D01*
X443296Y222921D01*
X443434Y221877D01*
X443837Y220904D01*
X444478Y220068D01*
X445314Y219427D01*
X446287Y219024D01*
X447331Y218887D01*
X448375Y219024D01*
X449348Y219427D01*
X450184Y220068D01*
X450825Y220904D01*
X451228Y221877D01*
X451365Y222921D01*
X451228Y223965D01*
X450825Y224939D01*
X450184Y225774D01*
X449348Y226415D01*
X448375Y226818D01*
X447331Y226956D01*
D02*
G37*
G36*
X460600Y224424D02*
X459749Y224255D01*
X459027Y223773D01*
X458545Y223051D01*
X458376Y222200D01*
X458545Y221349D01*
X459027Y220627D01*
X459326Y220428D01*
Y219400D01*
X459422Y218912D01*
X459699Y218499D01*
X464599Y213599D01*
X464750Y213498D01*
Y208250D01*
X471250D01*
Y215750D01*
X466123D01*
X466035Y215768D01*
X461874Y219928D01*
Y220428D01*
X462173Y220627D01*
X462655Y221349D01*
X462824Y222200D01*
X462655Y223051D01*
X462173Y223773D01*
X461451Y224255D01*
X460600Y224424D01*
D02*
G37*
G36*
X488669Y216129D02*
X487625Y215991D01*
X486652Y215588D01*
X485816Y214947D01*
X485175Y214112D01*
X484772Y213139D01*
X484635Y212094D01*
X484772Y211050D01*
X485175Y210077D01*
X485816Y209242D01*
X486652Y208600D01*
X487625Y208197D01*
X488669Y208060D01*
X489713Y208197D01*
X490687Y208600D01*
X491522Y209242D01*
X492163Y210077D01*
X492566Y211050D01*
X492704Y212094D01*
X492566Y213139D01*
X492163Y214112D01*
X491522Y214947D01*
X490687Y215588D01*
X489713Y215991D01*
X488669Y216129D01*
D02*
G37*
G36*
X447331D02*
X446287Y215991D01*
X445314Y215588D01*
X444478Y214947D01*
X443837Y214112D01*
X443434Y213139D01*
X443296Y212094D01*
X443434Y211050D01*
X443837Y210077D01*
X444478Y209242D01*
X445314Y208600D01*
X446287Y208197D01*
X447331Y208060D01*
X448375Y208197D01*
X449348Y208600D01*
X450184Y209242D01*
X450825Y210077D01*
X451228Y211050D01*
X451365Y212094D01*
X451228Y213139D01*
X450825Y214112D01*
X450184Y214947D01*
X449348Y215588D01*
X448375Y215991D01*
X447331Y216129D01*
D02*
G37*
G36*
X452252Y207271D02*
X451208Y207133D01*
X450235Y206730D01*
X449399Y206089D01*
X448758Y205254D01*
X448355Y204280D01*
X448217Y203236D01*
X448355Y202192D01*
X448758Y201219D01*
X449399Y200383D01*
X450235Y199742D01*
X451208Y199339D01*
X452252Y199202D01*
X453296Y199339D01*
X454269Y199742D01*
X455105Y200383D01*
X455746Y201219D01*
X456149Y202192D01*
X456286Y203236D01*
X456149Y204280D01*
X455746Y205254D01*
X455105Y206089D01*
X454269Y206730D01*
X453296Y207133D01*
X452252Y207271D01*
D02*
G37*
G36*
X473906Y201365D02*
X472861Y201228D01*
X471888Y200825D01*
X471053Y200184D01*
X470412Y199348D01*
X470009Y198375D01*
X469871Y197331D01*
X470009Y196287D01*
X470412Y195314D01*
X471053Y194478D01*
X471888Y193837D01*
X472861Y193434D01*
X473906Y193296D01*
X474950Y193434D01*
X475923Y193837D01*
X476758Y194478D01*
X477400Y195314D01*
X477803Y196287D01*
X477940Y197331D01*
X477803Y198375D01*
X477400Y199348D01*
X476758Y200184D01*
X475923Y200825D01*
X474950Y201228D01*
X473906Y201365D01*
D02*
G37*
G36*
X462094D02*
X461050Y201228D01*
X460077Y200825D01*
X459242Y200184D01*
X458600Y199348D01*
X458197Y198375D01*
X458060Y197331D01*
X458197Y196287D01*
X458600Y195314D01*
X459242Y194478D01*
X460077Y193837D01*
X461050Y193434D01*
X462094Y193296D01*
X463139Y193434D01*
X464112Y193837D01*
X464947Y194478D01*
X465588Y195314D01*
X465991Y196287D01*
X466129Y197331D01*
X465991Y198375D01*
X465588Y199348D01*
X464947Y200184D01*
X464112Y200825D01*
X463139Y201228D01*
X462094Y201365D01*
D02*
G37*
%LPD*%
D10*
X608000Y263000D02*
X617500Y272500D01*
X609681Y112681D02*
Y134319D01*
X602500Y105500D02*
X609681Y112681D01*
X609500Y134500D02*
X609681Y134319D01*
X538500Y112500D02*
Y117000D01*
X531500Y105500D02*
X538500Y112500D01*
X455000Y105500D02*
X455500D01*
X608000Y134500D02*
Y263000D01*
X604500Y134500D02*
X608000D01*
X531500Y105500D02*
X602500D01*
X455500D02*
X531500D01*
X380500D02*
X455000D01*
X455500Y106000D02*
Y135500D01*
X455000Y105500D02*
X455500Y106000D01*
X309000Y105500D02*
X380500D01*
Y135500D01*
X238000Y105500D02*
X309000D01*
Y135000D01*
X233500Y110000D02*
Y133500D01*
Y110000D02*
X238000Y105500D01*
X617500Y272500D02*
Y305000D01*
X608000Y134500D02*
X609500D01*
X151000Y158000D02*
X158546D01*
X168439Y167894D01*
D13*
X360000Y113817D02*
Y279683D01*
X358900Y280783D02*
Y280900D01*
Y280783D02*
X360000Y279683D01*
X358900Y112717D02*
X360000Y113817D01*
X595500Y150500D02*
X600000Y155000D01*
X460600Y219400D02*
Y222200D01*
X468000Y212000D02*
Y212500D01*
X466000Y214500D02*
X468000Y212500D01*
X354000Y147000D02*
Y276300D01*
X354200Y276500D01*
X351805Y133636D02*
X351869Y133700D01*
Y134131D01*
X350500Y140500D02*
Y280000D01*
X306000Y284000D02*
X346500D01*
X299500Y277500D02*
X306000Y284000D01*
X346500D02*
X350500Y280000D01*
X568000Y229300D02*
Y265000D01*
X558000Y219300D02*
X568000Y229300D01*
X520500Y249400D02*
X535002Y234898D01*
X520500Y249400D02*
Y256500D01*
X475500Y213500D02*
X477803D01*
X506316Y184988D01*
Y151316D02*
Y184988D01*
X504500Y149500D02*
X506316Y151316D01*
X504385Y155385D02*
X504631Y155631D01*
X507000Y131500D02*
Y142000D01*
X513500Y148500D01*
X504631Y155631D02*
Y160600D01*
X497731Y167500D02*
X504631Y160600D01*
X443500Y167500D02*
X497731D01*
X491814Y124100D02*
Y129814D01*
X511000Y160000D02*
Y271200D01*
X515300Y275500D01*
X418000Y159500D02*
X494000D01*
X496000Y157500D01*
X425000Y152500D02*
X427131Y150369D01*
X421000Y152500D02*
X425000D01*
X413500Y160000D02*
X421000Y152500D01*
X413500Y160000D02*
Y219000D01*
X433500Y130000D02*
Y139500D01*
X578500Y152500D02*
X580500Y150500D01*
X572000Y152500D02*
X578500D01*
X569500Y150000D02*
X572000Y152500D01*
X575500Y130793D02*
Y148500D01*
Y130793D02*
X578531Y127762D01*
X532000Y155000D02*
X538000D01*
X543000Y150000D01*
X536500Y141600D02*
X567100Y111000D01*
X536500Y141600D02*
Y148500D01*
X566500Y127500D02*
X571000Y123000D01*
X563500Y130500D02*
Y147500D01*
X566500Y157007D02*
X567369Y157876D01*
X566500Y127500D02*
Y157007D01*
X567369Y157876D02*
Y158231D01*
X594500Y125000D02*
X606500D01*
X589500Y130000D02*
X594500Y125000D01*
X617500Y204750D02*
X626250Y213500D01*
X617500Y135000D02*
Y204750D01*
X571000Y123000D02*
X585000D01*
X573250Y125250D02*
X581150D01*
X593100Y137200D01*
X265500Y263800D02*
Y278000D01*
Y263800D02*
X283500Y245800D01*
X188800Y132200D02*
Y273500D01*
X188793Y275396D02*
X191896Y278500D01*
X188793Y273507D02*
X188800Y273500D01*
X188793Y273507D02*
Y275396D01*
X208500Y278500D02*
X219500Y267500D01*
X191896Y278500D02*
X208500D01*
X219500Y267500D02*
X246500D01*
X332159Y148341D02*
X345900Y134600D01*
X541000Y128500D02*
X545000D01*
X539000Y126500D02*
X541000Y128500D01*
X498000Y127500D02*
X503000Y122500D01*
X545000D01*
X570900Y119600D02*
X579000Y111500D01*
X562200Y119600D02*
X570900D01*
X478000Y108000D02*
Y119900D01*
X458000Y139900D02*
X478000Y119900D01*
X447900Y139900D02*
X458000D01*
X512500Y126500D02*
X539000D01*
X520500Y137000D02*
Y224000D01*
X516500Y133000D02*
X520500Y137000D01*
X527369Y132631D02*
Y190569D01*
X536002Y199202D01*
X527369Y132631D02*
X527500Y132500D01*
X600000Y155000D02*
Y179000D01*
X468500Y278000D02*
X483500D01*
X409500Y145500D02*
Y219000D01*
X468500Y278000D01*
X469500Y275000D02*
X496500D01*
X413500Y219000D02*
X469500Y275000D01*
X432500Y269000D02*
Y275256D01*
Y269000D02*
X438500Y263000D01*
X448000D01*
X468000Y283000D02*
X574500D01*
X448000Y263000D02*
X468000Y283000D01*
X574500D02*
X583000Y274500D01*
Y133200D02*
Y274500D01*
X412500Y129000D02*
X428269D01*
X431900Y110000D02*
Y125369D01*
X428269Y129000D02*
X431900Y125369D01*
X419000Y133000D02*
X427000D01*
X429500Y130500D01*
X286000Y129500D02*
X295000D01*
X278015Y155016D02*
X298985D01*
X278000Y155031D02*
X278015Y155016D01*
X298985D02*
X299000Y155000D01*
X294000Y158500D02*
Y169200D01*
X283500Y179700D02*
X294000Y169200D01*
X334931Y151069D02*
X351869Y134131D01*
X279200Y151100D02*
X279231Y151069D01*
X334931D01*
X202000Y161000D02*
X254000D01*
X259500Y155500D01*
X199500Y158500D02*
X202000Y161000D01*
X207800Y159000D02*
X247700D01*
X197500Y148700D02*
X207800Y159000D01*
X247700D02*
X258000Y148700D01*
X229269Y135431D02*
X253569D01*
X254000Y135000D01*
X228900Y135800D02*
X229269Y135431D01*
X436500Y174500D02*
Y228600D01*
Y174500D02*
X443500Y167500D01*
X422000Y176000D02*
Y222600D01*
X414500Y140000D02*
X424000Y149500D01*
X414500Y132000D02*
Y140000D01*
X427131Y145869D02*
Y150369D01*
Y145869D02*
X433500Y139500D01*
X421300Y126000D02*
X422500D01*
X415300Y120000D02*
X421300Y126000D01*
X398200Y120000D02*
X415300D01*
X442000Y134000D02*
X447900Y139900D01*
X496488Y151409D02*
X500062Y147834D01*
X433500Y151409D02*
X496488D01*
X430500Y145600D02*
Y154500D01*
Y145600D02*
X435500Y140600D01*
X447969Y143000D02*
X502000D01*
X438500Y133531D02*
X447969Y143000D01*
X438500Y126500D02*
Y133531D01*
X395969Y109431D02*
X397900Y107500D01*
X336134Y131566D02*
X342866D01*
X345900Y134600D02*
X345900D01*
X342866Y131566D02*
X345900Y134600D01*
X247800Y112300D02*
X256000Y120500D01*
X238400Y112300D02*
X247800D01*
X256000Y170500D02*
X266500Y160000D01*
X269500Y147000D02*
X274000Y142500D01*
X312600D01*
X266500Y120000D02*
Y160000D01*
X262500Y151000D02*
Y157800D01*
X257369Y162931D02*
X262500Y157800D01*
X200000Y162931D02*
X257369D01*
X225500Y170500D02*
X256000D01*
X207900Y188100D02*
Y268700D01*
X266500Y120000D02*
X271400Y115100D01*
X207900Y188100D02*
X225500Y170500D01*
X283500Y179700D02*
Y245800D01*
X231000Y212500D02*
X236500D01*
X237000Y213000D01*
X211000Y135500D02*
Y154500D01*
Y135500D02*
X223300Y123200D01*
X188800Y132200D02*
X195500Y125500D01*
X186000Y110000D02*
Y112000D01*
X184800Y113200D02*
X186000Y112000D01*
X393000Y125200D02*
Y133500D01*
Y125200D02*
X398200Y120000D01*
X409495Y145495D02*
X409500Y145500D01*
X405734Y125466D02*
X405800Y125400D01*
X405734Y125466D02*
Y255334D01*
X667000Y127000D02*
Y253500D01*
Y247500D02*
X671000D01*
X549500Y210700D02*
Y213000D01*
X547000Y208200D02*
X549500Y210700D01*
X628200Y204231D02*
X632000Y208031D01*
X628200Y192100D02*
Y204231D01*
X274214Y148341D02*
X332159D01*
X611700Y222700D02*
X617200Y217200D01*
X611700Y222700D02*
Y262400D01*
X212700Y282500D02*
X223500Y271700D01*
X184800Y278968D02*
X188332Y282500D01*
X212700D01*
X184800Y113200D02*
Y278968D01*
X271400Y115100D02*
X302100D01*
X320700Y117200D02*
X345169D01*
X354300Y126331D01*
X346338Y142541D02*
X354300Y134579D01*
X346338Y142541D02*
Y278900D01*
X354300Y126331D02*
Y134579D01*
X269500Y147000D02*
Y153217D01*
X312600Y142500D02*
X314100Y141000D01*
X269500Y153217D02*
X275400Y159117D01*
X314100Y118000D02*
Y141000D01*
Y118000D02*
X317200Y114900D01*
X329200D01*
X432500Y107500D02*
X435500Y110500D01*
Y140600D01*
X397900Y107500D02*
X432500D01*
X409495Y132005D02*
Y145495D01*
Y132005D02*
X412500Y129000D01*
X446100Y267400D02*
Y270100D01*
X437300Y278900D02*
X446100Y270100D01*
X411600Y278900D02*
X437300D01*
X407600Y128100D02*
Y274900D01*
X411600Y278900D01*
X407600Y128100D02*
X412300Y123400D01*
X405669Y255400D02*
X405734Y255334D01*
X585000Y123000D02*
X587500Y125500D01*
X593100Y137200D02*
Y267600D01*
X518900Y265800D02*
X536002Y248698D01*
Y199202D02*
Y248698D01*
X498000Y164500D02*
X502700Y159800D01*
X433500Y164500D02*
X498000D01*
X422000Y176000D02*
X433500Y164500D01*
X535002Y231002D02*
Y234898D01*
X533100Y229100D02*
X535002Y231002D01*
X533100Y226900D02*
Y229100D01*
X532000Y225800D02*
X533100Y226900D01*
X528800Y225800D02*
X532000D01*
X527900Y226700D02*
X528800Y225800D01*
X523200Y226700D02*
X527900D01*
X520500Y224000D02*
X523200Y226700D01*
X502000Y143000D02*
X509031Y150031D01*
Y231269D01*
X469300Y271000D02*
X509031Y231269D01*
X517300Y155300D02*
Y225100D01*
X491814Y129814D02*
X517300Y155300D01*
Y225100D02*
X520000Y227800D01*
X531100D01*
X582800Y133000D02*
X583000Y133200D01*
X546500Y135300D02*
Y169100D01*
Y135300D02*
X562200Y119600D01*
X356600Y124400D02*
Y134400D01*
X350500Y140500D02*
X356600Y134400D01*
X358400Y286800D02*
X361931Y283269D01*
Y123900D02*
Y283269D01*
X291700Y286800D02*
X358400D01*
X280600Y275700D02*
X291700Y286800D01*
X368000Y122700D02*
Y284100D01*
X358900Y112600D02*
Y112717D01*
X186800Y122600D02*
X197500Y111900D01*
X186800Y122600D02*
Y268200D01*
X192000Y139000D02*
Y275400D01*
Y139000D02*
X207500Y123500D01*
X247900Y149600D02*
X256000Y141500D01*
Y120500D02*
Y141500D01*
X244400Y149600D02*
X247900D01*
X565800Y274100D02*
X565900D01*
X564700Y273000D02*
X565800Y274100D01*
X564700Y247900D02*
Y273000D01*
X557000Y240200D02*
X564700Y247900D01*
X557000Y130900D02*
Y240200D01*
Y130900D02*
X558800Y129100D01*
X558000Y132700D02*
X566700Y124000D01*
X558000Y132700D02*
Y219300D01*
X372500Y225500D02*
Y326000D01*
Y225500D02*
X376900Y221100D01*
X614500Y263000D02*
X643000Y291500D01*
X614500Y229700D02*
Y263000D01*
X643000Y291500D02*
Y320000D01*
X619900Y215900D02*
Y219300D01*
X613000Y209000D02*
X619900Y215900D01*
X617000Y249500D02*
Y257000D01*
X630000Y127000D02*
X631000Y128000D01*
Y195000D01*
X642000Y184000D02*
X647000Y189000D01*
X642000Y127000D02*
Y184000D01*
X660500Y120500D02*
X667000Y127000D01*
X648000Y120500D02*
X660500D01*
X641000Y114000D02*
X641500D01*
X648000Y120500D01*
X654200Y266300D02*
X667000Y253500D01*
X633900Y242300D02*
X643700D01*
X649000Y176590D02*
X649979Y175610D01*
X640500Y234500D02*
X647000Y228000D01*
Y189000D02*
Y228000D01*
X649000Y176590D02*
Y237000D01*
X649986Y175610D02*
X650596Y175000D01*
X643700Y242300D02*
X649000Y237000D01*
X650596Y175000D02*
X651100D01*
X649979Y175610D02*
X649986D01*
X652200Y182000D02*
Y257800D01*
X635500Y118500D02*
Y195000D01*
Y232500D02*
X638100D01*
X645500Y205000D02*
Y225100D01*
X625500Y209500D02*
X641000Y225000D01*
X638100Y232500D02*
X645500Y225100D01*
X621500Y251500D02*
Y257500D01*
X615000Y120000D02*
X621000Y114000D01*
X631000Y221000D02*
Y257000D01*
X621500Y257500D02*
X626000Y262000D01*
X648000D02*
X652200Y257800D01*
X617000Y257000D02*
X653000Y293000D01*
Y320000D01*
X626200Y108200D02*
Y108704D01*
X625500Y109404D02*
X626200Y108704D01*
X396000Y240000D02*
X401500Y234500D01*
X547000Y213000D02*
X549500D01*
X547000Y208000D02*
Y208200D01*
X141000Y107000D02*
Y145000D01*
Y107000D02*
X145000Y103000D01*
X401500Y208000D02*
Y234500D01*
X396500Y203000D02*
X401500Y208000D01*
X376900Y221100D02*
X394500D01*
X614500Y229700D02*
X619700Y224500D01*
X615000Y120000D02*
Y205000D01*
X631000Y221000D01*
X635500Y195000D02*
X645500Y205000D01*
X631000Y114000D02*
X635500Y118500D01*
X651000Y127000D02*
X660700D01*
X663700Y130000D01*
Y169400D01*
X465500Y214500D02*
X466000D01*
X460600Y219400D02*
X465500Y214500D01*
X317000Y208900D02*
Y214000D01*
X691400Y232791D02*
X697800Y239191D01*
Y291200D01*
X670000Y178400D02*
Y217700D01*
Y178400D02*
X686500Y161900D01*
X625500Y109404D02*
Y209500D01*
X626000Y262000D02*
X648000D01*
D16*
X651000Y127000D02*
D03*
X642000D02*
D03*
X630000D02*
D03*
X621000D02*
D03*
D17*
X237000Y213000D02*
D03*
Y222000D02*
D03*
X317000Y214000D02*
D03*
Y223000D02*
D03*
X468000Y212000D02*
D03*
Y221000D02*
D03*
X547000Y213000D02*
D03*
Y222000D02*
D03*
D29*
X150500Y232000D02*
X152000Y230500D01*
Y163000D02*
Y230500D01*
D30*
X143780Y292504D02*
D03*
D31*
X130000Y274000D02*
D03*
X154409D02*
D03*
D32*
X633000Y320000D02*
D03*
X643000D02*
D03*
X653000D02*
D03*
X621000Y114000D02*
D03*
X631000D02*
D03*
X641000D02*
D03*
D33*
X663000Y320000D02*
D03*
X651000Y114000D02*
D03*
D34*
X681000Y310000D02*
D03*
X680000Y119000D02*
D03*
X120000D02*
D03*
Y311000D02*
D03*
D35*
X396500Y203000D02*
D03*
X396000Y240000D02*
D03*
D36*
X386500Y203000D02*
D03*
X386000Y240000D02*
D03*
D37*
X552906Y197331D02*
D03*
X561764Y203236D02*
D03*
X567669Y212094D02*
D03*
Y222921D02*
D03*
X562748Y232764D02*
D03*
X552906Y238669D02*
D03*
X541094D02*
D03*
X531252Y232764D02*
D03*
X526331Y222921D02*
D03*
Y212094D02*
D03*
X531252Y203236D02*
D03*
X541094Y197331D02*
D03*
X473906D02*
D03*
X482764Y203236D02*
D03*
X488669Y212094D02*
D03*
Y222921D02*
D03*
X483748Y232764D02*
D03*
X473906Y238669D02*
D03*
X462094D02*
D03*
X452252Y232764D02*
D03*
X447331Y222921D02*
D03*
Y212094D02*
D03*
X452252Y203236D02*
D03*
X462094Y197331D02*
D03*
X322406Y198331D02*
D03*
X331264Y204236D02*
D03*
X337169Y213094D02*
D03*
Y223921D02*
D03*
X332248Y233764D02*
D03*
X322406Y239669D02*
D03*
X310594D02*
D03*
X300752Y233764D02*
D03*
X295831Y223921D02*
D03*
Y213094D02*
D03*
X300752Y204236D02*
D03*
X310594Y198331D02*
D03*
X243906D02*
D03*
X252764Y204236D02*
D03*
X258669Y213094D02*
D03*
Y223921D02*
D03*
X253748Y233764D02*
D03*
X243906Y239669D02*
D03*
X232094D02*
D03*
X222252Y233764D02*
D03*
X217331Y223921D02*
D03*
Y213094D02*
D03*
X222252Y204236D02*
D03*
X232094Y198331D02*
D03*
D38*
X335000Y172000D02*
D03*
X104000Y164000D02*
D03*
X357000Y145000D02*
D03*
X361931Y123900D02*
D03*
X595500Y150500D02*
D03*
X661000Y215000D02*
D03*
X657000Y286000D02*
D03*
Y291000D02*
D03*
Y297000D02*
D03*
Y302000D02*
D03*
Y308000D02*
D03*
X103000Y215000D02*
D03*
X104000Y244000D02*
D03*
Y272000D02*
D03*
Y290000D02*
D03*
Y308000D02*
D03*
X500000Y213000D02*
D03*
X504000D02*
D03*
X514000D02*
D03*
Y223000D02*
D03*
X504000D02*
D03*
X500000D02*
D03*
X605000Y153000D02*
D03*
Y159000D02*
D03*
Y165000D02*
D03*
Y172000D02*
D03*
Y178000D02*
D03*
Y184000D02*
D03*
X603000Y196000D02*
D03*
Y209000D02*
D03*
X613000Y299000D02*
D03*
Y292000D02*
D03*
Y281000D02*
D03*
X603000Y288000D02*
D03*
Y272000D02*
D03*
Y262000D02*
D03*
Y254000D02*
D03*
Y246000D02*
D03*
Y221000D02*
D03*
Y202000D02*
D03*
Y229000D02*
D03*
Y237000D02*
D03*
X641000Y270000D02*
D03*
X651000Y263000D02*
D03*
Y270000D02*
D03*
X640000Y297000D02*
D03*
X632000Y208031D02*
D03*
X622000Y200000D02*
D03*
X623000Y133000D02*
D03*
X634000Y105000D02*
D03*
X659000Y131000D02*
D03*
X666000Y120000D02*
D03*
X659000Y117000D02*
D03*
X671000Y105000D02*
D03*
X659000Y106000D02*
D03*
X671000Y144000D02*
D03*
X657000Y143000D02*
D03*
X671000Y155000D02*
D03*
X657000Y156000D02*
D03*
X674000Y215000D02*
D03*
X657000Y211000D02*
D03*
X676000Y205000D02*
D03*
X663000Y194000D02*
D03*
X619000Y236000D02*
D03*
X623000Y280000D02*
D03*
X627000Y283000D02*
D03*
X635000Y289000D02*
D03*
X644000Y277000D02*
D03*
X630000Y286000D02*
D03*
X641000Y274000D02*
D03*
X631000Y293000D02*
D03*
X637000Y301000D02*
D03*
X627000Y297000D02*
D03*
X633000Y305000D02*
D03*
X526000Y309000D02*
D03*
X522000Y312000D02*
D03*
X519000Y316000D02*
D03*
X516000Y319000D02*
D03*
X513000Y298000D02*
D03*
X511000Y301000D02*
D03*
X508000Y304000D02*
D03*
X505000Y308000D02*
D03*
X513000Y322000D02*
D03*
X502000Y312000D02*
D03*
X376000Y304000D02*
D03*
Y300000D02*
D03*
Y296000D02*
D03*
X368000D02*
D03*
Y300000D02*
D03*
Y304000D02*
D03*
X376000Y312000D02*
D03*
Y315000D02*
D03*
Y318000D02*
D03*
X368000Y312000D02*
D03*
Y315000D02*
D03*
Y318000D02*
D03*
X300000Y289000D02*
D03*
X293000D02*
D03*
X312000Y293000D02*
D03*
X308000D02*
D03*
X304000D02*
D03*
X316000Y290000D02*
D03*
X285000Y289000D02*
D03*
X216000Y287000D02*
D03*
Y293000D02*
D03*
X262000Y288000D02*
D03*
X258000D02*
D03*
X254000D02*
D03*
X216000Y290000D02*
D03*
X208000Y150000D02*
D03*
X338000Y112000D02*
D03*
X155000Y219000D02*
D03*
X178000D02*
D03*
X175000D02*
D03*
X172000D02*
D03*
X164000D02*
D03*
X161000D02*
D03*
X356000Y157000D02*
D03*
X354000Y147000D02*
D03*
X351805Y133636D02*
D03*
X390000Y152000D02*
D03*
X481000Y155000D02*
D03*
X474000Y149000D02*
D03*
X477000Y134000D02*
D03*
X493000Y155000D02*
D03*
X612000Y132000D02*
D03*
X622000Y121000D02*
D03*
X648000Y142000D02*
D03*
X639000Y245000D02*
D03*
Y239000D02*
D03*
X628831Y259569D02*
D03*
X638000Y259000D02*
D03*
X624000Y219000D02*
D03*
X618000Y232000D02*
D03*
X633000Y237000D02*
D03*
X647000Y243000D02*
D03*
X644000Y238000D02*
D03*
X661590Y249991D02*
D03*
X670000Y275000D02*
D03*
X392000Y269000D02*
D03*
X376000Y229000D02*
D03*
X374000Y209000D02*
D03*
X384000Y174000D02*
D03*
X376000Y160000D02*
D03*
X613000Y325000D02*
D03*
X592000D02*
D03*
X538000D02*
D03*
X518000D02*
D03*
X376000Y292000D02*
D03*
Y308000D02*
D03*
Y321000D02*
D03*
X368000Y308000D02*
D03*
Y292000D02*
D03*
Y321000D02*
D03*
X331000Y294000D02*
D03*
X352000Y319000D02*
D03*
X319000Y306000D02*
D03*
X336000Y326000D02*
D03*
X318000Y325000D02*
D03*
X161000Y327000D02*
D03*
X122000Y326000D02*
D03*
X160000Y294000D02*
D03*
X174000Y266000D02*
D03*
X111000Y252000D02*
D03*
X158000Y219000D02*
D03*
X181000D02*
D03*
Y166000D02*
D03*
Y182000D02*
D03*
Y143000D02*
D03*
X180000Y121000D02*
D03*
X170000Y141000D02*
D03*
Y121000D02*
D03*
X171000Y106000D02*
D03*
X104000Y149000D02*
D03*
Y183000D02*
D03*
Y121000D02*
D03*
X121000Y103000D02*
D03*
X676000Y187000D02*
D03*
X686000Y179000D02*
D03*
X656000Y199000D02*
D03*
X685000Y198000D02*
D03*
X696000Y122000D02*
D03*
X678000Y104000D02*
D03*
X645000Y106000D02*
D03*
X612000Y107000D02*
D03*
X553000Y114000D02*
D03*
X533000Y133000D02*
D03*
X532000Y148000D02*
D03*
X524000Y151000D02*
D03*
X504000Y164000D02*
D03*
X501000Y153000D02*
D03*
X504000Y127000D02*
D03*
X498000Y132000D02*
D03*
X487000Y128000D02*
D03*
X546000Y113000D02*
D03*
X480000Y130000D02*
D03*
X463000Y111000D02*
D03*
X401000Y113000D02*
D03*
X387000Y111000D02*
D03*
X317000Y155000D02*
D03*
X311511Y131704D02*
D03*
X318000Y133000D02*
D03*
X320000Y110000D02*
D03*
X255000D02*
D03*
X340000Y235000D02*
D03*
X315000Y230000D02*
D03*
X299500Y277500D02*
D03*
X568000Y265000D02*
D03*
X520500Y256500D02*
D03*
X504500Y149500D02*
D03*
X504385Y155385D02*
D03*
X513500Y148500D02*
D03*
X507000Y131500D02*
D03*
X511000Y160000D02*
D03*
X418000Y159500D02*
D03*
X575500Y148500D02*
D03*
X536500D02*
D03*
X563500Y130500D02*
D03*
Y147500D02*
D03*
X606500Y125000D02*
D03*
X589500Y130000D02*
D03*
X617500Y135000D02*
D03*
X578531Y127762D02*
D03*
X587500Y125500D02*
D03*
X573250Y125250D02*
D03*
X475500Y213500D02*
D03*
X265500Y278000D02*
D03*
X246500Y267500D02*
D03*
X496000Y157500D02*
D03*
X545000Y128500D02*
D03*
Y122500D02*
D03*
X498000Y127500D02*
D03*
X579000Y111500D02*
D03*
X478000Y108000D02*
D03*
X512500Y126500D02*
D03*
X516500Y133000D02*
D03*
X527500Y132500D02*
D03*
X538500Y117000D02*
D03*
X532000Y155000D02*
D03*
X543000Y150000D02*
D03*
X569500D02*
D03*
X580500Y150500D02*
D03*
X600000Y179000D02*
D03*
X483500Y278000D02*
D03*
X496500Y275000D02*
D03*
X432500Y275256D02*
D03*
X150500Y232000D02*
D03*
X429500Y130500D02*
D03*
X419000Y133000D02*
D03*
X295000Y129500D02*
D03*
X286000D02*
D03*
X278000Y155031D02*
D03*
X299000Y155000D02*
D03*
X294000Y158500D02*
D03*
X259500Y155500D02*
D03*
X199500Y158500D02*
D03*
X254000Y135000D02*
D03*
X424000Y149500D02*
D03*
X414500Y132000D02*
D03*
X422500Y126000D02*
D03*
X442000Y134000D02*
D03*
X433500Y151409D02*
D03*
X430500Y154500D02*
D03*
X438500Y126500D02*
D03*
X433500Y130000D02*
D03*
X431900Y110000D02*
D03*
X336134Y131566D02*
D03*
X262500Y151000D02*
D03*
X231000Y212500D02*
D03*
X211000Y154500D02*
D03*
X195500Y125500D02*
D03*
X186000Y110000D02*
D03*
X393000Y133500D02*
D03*
X405669Y255400D02*
D03*
X671000Y247500D02*
D03*
X628200Y192100D02*
D03*
X274214Y148341D02*
D03*
X345900Y134600D02*
D03*
X197500Y148700D02*
D03*
X258000D02*
D03*
X617200Y217200D02*
D03*
X611700Y262400D02*
D03*
X279200Y151100D02*
D03*
X200000Y162931D02*
D03*
X223500Y271700D02*
D03*
X207900Y268700D02*
D03*
X302100Y115100D02*
D03*
X320700Y117200D02*
D03*
X346338Y278900D02*
D03*
X354200Y276500D02*
D03*
X275400Y159117D02*
D03*
X329200Y114900D02*
D03*
X395969Y109431D02*
D03*
X446100Y267400D02*
D03*
X412300Y123400D02*
D03*
X405800Y125400D02*
D03*
X567369Y158231D02*
D03*
X593100Y267600D02*
D03*
X515300Y275500D02*
D03*
X518900Y265800D02*
D03*
X502700Y159800D02*
D03*
X422000Y222600D02*
D03*
X436500Y228600D02*
D03*
X469300Y271000D02*
D03*
X500062Y147834D02*
D03*
X491814Y124100D02*
D03*
X531100Y227800D02*
D03*
X582800Y133000D02*
D03*
X567100Y111000D02*
D03*
X546500Y169100D02*
D03*
X356600Y124400D02*
D03*
X280600Y275700D02*
D03*
X368000Y284100D02*
D03*
Y122700D02*
D03*
X358900Y280900D02*
D03*
Y112600D02*
D03*
X197500Y111900D02*
D03*
X186800Y268200D02*
D03*
X192000Y275400D02*
D03*
X207500Y123500D02*
D03*
X238400Y112300D02*
D03*
X244400Y149600D02*
D03*
X223300Y123200D02*
D03*
X228900Y135800D02*
D03*
X626250Y213500D02*
D03*
X565900Y274100D02*
D03*
X558800Y129100D02*
D03*
X566700Y124000D02*
D03*
X372500Y326000D02*
D03*
X604500Y134500D02*
D03*
X455500Y135500D02*
D03*
X380500D02*
D03*
X309000Y135000D02*
D03*
X233500Y133500D02*
D03*
X617500Y305000D02*
D03*
X613000Y209000D02*
D03*
X631000Y195000D02*
D03*
X652200Y182000D02*
D03*
X640500Y234500D02*
D03*
X635500Y232500D02*
D03*
X641000Y225000D02*
D03*
X631000Y257000D02*
D03*
X621500Y251500D02*
D03*
X617000Y249500D02*
D03*
X547000Y208000D02*
D03*
X145000Y103000D02*
D03*
X141000Y145000D02*
D03*
X619900Y219300D02*
D03*
X152000Y163000D02*
D03*
X394500Y221100D02*
D03*
X619700Y224500D02*
D03*
X151000Y158000D02*
D03*
X168439Y167894D02*
D03*
X663700Y169400D02*
D03*
X460600Y222200D02*
D03*
X317000Y208900D02*
D03*
X691400Y232791D02*
D03*
X697800Y291200D02*
D03*
X670000Y217700D02*
D03*
X686500Y161900D02*
D03*
X626200Y108200D02*
D03*
X633900Y242300D02*
D03*
X651100Y175000D02*
D03*
X654200Y266300D02*
D03*
M02*
